<svg xmlns:inkscape="http://www.inkscape.org/namespaces/inkscape" xmlns:rdf="http://www.w3.org/1999/02/22-rdf-syntax-ns#" xmlns="http://www.w3.org/2000/svg" sodipodi:docname="borders-colour-combine.svg" viewBox="0 0 1441.059 1405.5061" version="1.1" xmlns:cc="http://creativecommons.org/ns#" xmlns:dc="http://purl.org/dc/elements/1.1/" inkscape:version="0.91 r13725" overflow="hidden" xmlns:sodipodi="http://sodipodi.sourceforge.net/DTD/sodipodi-0.dtd">
 <sodipodi:namedview fit-margin-left="0" inkscape:zoom="0.75939567" borderopacity="1" inkscape:current-layer="g12" inkscape:cx="787.99122" inkscape:cy="628.29939" inkscape:window-maximized="1" showgrid="false" fit-margin-right="0" showguides="false" bordercolor="#666666" inkscape:window-x="3840" guidetolerance="10" objecttolerance="10" inkscape:window-y="24" fit-margin-bottom="0" inkscape:window-width="1920" inkscape:pageopacity="0" inkscape:pageshadow="2" pagecolor="#ffffff" gridtolerance="10" inkscape:window-height="1031" fit-margin-top="0"/>
 <g data-geometry-type="polygon" display="block" transform="translate(-95.664 -76.3)">
  <g fill-opacity=".74902" fill-rule="evenodd" stroke="#000" display="inline" fill="#4c81cd">
   <g fill-opacity="1">
    <g stroke="#2b9e73" stroke-width="1.9" fill="#2b9e73">
     <a href="roxburghshire.html">
       <path d="m1082.3 632.95 7.4072-9.7117 9.2178 10.699 15.144 6.255 10.864-8.8886 11.193 0.82302 11.522-13.827 8.0656-6.255 9.0533 5.1027 0.3292 21.069 9.8762-1.1522 3.9505 11.029 4.1152 18.93-3.9505 22.057 20.576 17.777-25.514 19.259-26.172-37.365-10.864 8.0656-10.041-4.7735 8.3948-33.744-14.485 13.498-18.765-2.9629 1.8107-15.637-8.2303-9.2179zm264.7 119.05l1 27 6 10-5 23-18-12-20-26-15-8-14 7-14-19 6-11-17-15 15-11 21-23 12 7 30 32 12 19zm-98-149 10 12 15-4-3 12 5 18 11 4 6 11-33 24-26 28-16-8-18 7-21-18 4-22-4-19 16-12 1-15 11-5 17-17 16-5 9 9zm-25-4-17 17-11 5-1 15-16 12-4-11-10 1v-21l-9-5-8 6-12-8 8-7 22-31 15-3 9-5 9 10 9 2 16 23zm49 256-21 13 10 12 1 16 34 13 12 20 9 15-11 5-21 13-1 9-16 11-19-3v12l-12 6-13-1-19-3-1-18-15-30 1-31-17-26 2-25 5-19 14 1 12 2 9 6 2 10 10 3 10-14v-21l28-9-4 17 11 16zm20-161-21 23-15 11-13 17 13 31-2 14h-15l-13-2h-31l7-16 4-11-3-14 4-8-8-18v-14l18-7 16 8 26-28 33-24 3 9-6 18 3 11zm-25 60 14 19 14-7 15 8 20 26 18 12 10 6 16 28-4 13 5 11 26 4 8 7-23 12-4 27-10 12-26 17-10-7-19 2-9-15-12-20-34-13-1-16-10-12 21-13-11-16 4-17-28 9v21l-10 14-10-3-2-10-9-6-12-2-14-1 17-46-10-1 8-9h31l13 2h15l2-14-13-31 13-17 17 15-6 11zm-180-65-27 14-13-6 1-10-5-18-9-8 13-3 24-13 10-12 14 11 8 9-2 16-14 20zm78-117-22 31-8 7-13-4-17 10-21-39 15-2 11-10 7 7h9l20-15 19 15zm-19-15-20 15h-9l-7-7-11 10-15 2-13 4-15-12 2-19 10-6 11-2 3-10 25-2 12-15 15 2 4 15 16 12-7 5-1 8zm-125 47 4 7 13-3 8 5 11-5 21 12 16-7-5 10-18 22-24 13-13 3-16 2-6-16-9-2-11-6-4-15 4-9 3-11 16-3 10 3zm186 135-4 8 3 14-4 11-7 16-8 9 10 1-17 46-5 19-10-4-15-15-16-25-16-3 4-18-27-44 14-16 23 1 7 5 17-11 17-7 26-19v14l8 18zm-73-80-8 33 10 5 11-8 26 37-17 7-17 11-7-5-23-1-14 16-26-20-34 33-9 5-7 10-22-18 37-29 27-6 7-9-9-6 1-11 27-14 14-20 19 3 14-13zm70 422-20 2-3-11-16-8v-15l-17-1 10-11 9-26-20-15-10-17-20-13 8-17-23-7-16-31 13-32 5-30v-15l14-18 16 3 16 25 15 15 10 4-2 25 17 26-1 31 15 30 1 18 19 3 13 1 9 11 5 21-16 12 8 10-35 21-4 9zm-109-327 27 44-4 18-14 18-8-5-4 13-25-19 7-5-14-15 4-8h-10l-3 8-19 4-6-15-7-10 7-10 9-5 34-33 26 20zm-36 180 5 13-18 5v19l19-8 9 6 8-5-7 49-20 5v13l14 6 8-4 11 16h10l10-12h13l-2 12 9 23-16-1-14 5-31 48-9 1-19 11-8-4 2 10-11 16-18-8h-18l-16-9-17-4-18-12 3-43 8-13-5-15 5-15-6-15 14-3 15-17 4-24-10-10-1-11 22 1 12-4 13-21 11 4 21-31 9 26h9zm-63 22-12 4-22-1 1 11 10 10-4 24-15 17-14 3 6 15-5 15 5 15-8 13-3 43-10-10-32 35-20-3-8-7-1-22-6-13-15-25 14-22 38-43-7-9 9-25 32-32 4-11 13-2-5-8 11-31 9 18-1 15-2 15 22 2 16 9zm-265.98 58.25 6.2328 5.9418 7.8254-5.9418 7.8836 16.884 12.291 11.058 6 13 2 32 8 13-1 10-9 6v28l11 8v11l-18 7-20-10-20 11h-11l-5 20-13-6-8 12-24-17-20-5-4 9-21 11-5 14-15 4-7-17-24 9-12-15 1-14 7-11-14-18-7-18h32l15-18 4-26 7-10 16 2 28-22 11-2 7-20 16-7 9-14 40.709-8.8254zm240 126.9l16 9h18l18 8-10 13-30 18-18 27 1 9-19 4 20 18 13 4-17 4-6 25 4 10-16 6-18-3-16 33-2 16-20 33-26 9-14 15-28 15-15 16-21 6-12-4-8 10 3 15-10 6-4 13-12 5-7-44-11-12-14 2-3-9-6-10-2-33 6-37 10-15-2-9 26-25-2-23-29 3-23-2 14-36 19-9-1-14-9-17 5-20h11l20-11 20 10 18-7 13 1 15-14 17 9 12 2 15-10 14 5 6-9 20 3 32-35 10 10 18 12 17 4zm76.98-444.1l13 6-1 11 9 6-7 9-27 6-37 29-36-33 12-8 4-10 8-3 4-12 27 2 18-8 13 5zm-70-2-7 10 7 8-4 10-38 26-9-5-13 17-21-43 28-16 23-12 4 12 15-13 9-4 6 10zm-16 36 36 33 22 18 7 10 6 15-7 9-29 6-16 11-9 7-14 14-12 5-15-14-25-25 8-11-16-13 19-17 7-15-10-3 13-17 9 5 26-18zm27 177-8 39-22-2 2-15 1-15-9-18-1-18-4-9-2-11 12-5 14-14 15 12 21 27-19 29zm-58-63 15 14-11 19-17 3-33 22-11-1-7-6-10 4-9-16-9-32 25-14 8 7 23-20 11-5 25 25zm-14-66-19 17 16 13-8 11-11 5-23 20-8-7-25 14-22 13-8-15 18-21-14-4-8-10 11-14-6-7-10-8 57-7 6 9 11-13h30l10-14 10 3-7 15zm-23-92 10 10 10-6 7 11-28 16 21 43-10 14h-30l-11 13-6-9-34 4-4-14 14-11-8-6-14.658-8 26.658-8 6-7-5-16 4-8 2-21 15-3 14 6zm-108 194-12 12h-9l-23.233 13.942-21.873 14.349-5.418-11.942-9.48-2.35-8 18-15 13-21-27-14-4 12-15 33.753-15.7-5.2058-15.794 9.2469-1.3416-2.7407-7.7942 7.9177-11.671 27.03-1.7-4-10-9-4 14-11 29-14 41-13 10 8 6 7-11 14 8 10 14 4-18 21 8 15zm108-379v17l13 29-1 11v14l3 15 14 13-2 8 9 24-1 16 9 14-1 21 7 6-23 12-7-11-10 6-10-10h-21l-14-6-15 3-13 3-20-18 23-27-22-6-11-19-15-5-12-8 4-15-23-6-8-12 10-22 6-9 19-19 1-34 10 4 15-3 5 16 23-10v13l12 6 16-7-1-14 16-13 15 23zm-71.839 435.31 9-5.1835 3.482-2.3705 3.5082 0.18035 1.201-3.888 5.3939-0.14724 1.1463-2.3699 4.3206 0.88783 2.1907-1.5973-3.5935 7.7934l-3.81 7.39-9 13 3 18-19 10 1 19-29 29-5 10-16 18-6-13-12-11-8-17-8 6-6-6-3-11 11-14 20-27 1.6721-9.1968 14.374-5.2656 4.8983 1.8294 11.128-3.9902h4.1115l8.741-2.6886 4.2296-5.2918 10.128 0.26881zm25.839-53.541 9 16 10-4 7 6-6 15-15 5-3.3443 2.7312-3.4131-0.73438-1.6557 2.1706-4.8 0.22299-1.3279 3.8689-3.6263-0.56384-3.6033 2.7836-9.0164 4.964-5.0689 0.50159-9.4394-0.0591-4.0426 5.1147-8.6984 2.5082-3.9049 0.0524-10.449 4.1311-5.5278-1.8951-14.452 5.1245 2.3705-12.921-11-19-10-14 23-14h9l12-12 31-16 22-13zm270 82.23l20 13 10 17 20 15-9 26-10 11 17 1v15l-9 4-14-5-14 9-9-23 2-12h-13l-10 12h-10l-11-16-8 4-14-6v-13l20-5 3.741-29.446 10.623-7.1049 11.02-2.741 4.2786-5.5016c7.0277-0.58161 13.479-2.7807 12.338-2.2066zm-50-143 25 19 4-13 8 5v15l-5 30-13 32 16 31 23 7-8 17c-6.1332 1.1746-9.7204 1.005-13.032 3.0654-1.3057 0.81246-1.3891 2.3648-3.3539 3.888-2.5088 1.9449-4.9409 0.91078-7.9559 2.382-8.3342 4.0666-10.228 6.8606-12.458 6.5564-2.1835-0.29784 2.3362-13.266 0.8685-17.892l-7.0689 5-9-6-19 8v-19l18-5-5-13h-9l-9-26-21 31-11-4-13 21-16-9 8-39 19-29-21-27-15-12 9-7 16-11 29-6 7-9 19-4 3-8h10l-4 8 14 15zm-170 158-9 25 7 9-38 43-14 22 15 25 6 13 1 22 8 7-6 9-14-5-15 10-12-2-17-9-15 14-13-1v-11l-11-8v-28l9-6 1-10-8-13-2-32 16-18 5-10 29-29-1-19 19-10c11.255 7.6334 20.521 12.176 29.341 12.124 19.7-0.11 10.31 0.92 29.66-0.12zm55-84-11 31 5 8-13 2-4 11-32 32c-9.2659-0.0451-14.518 0.59806-23.267 0.0897-3.7609-0.21854-9.2415 0.0211-14.196-1.2041-7.11-1.76-15.48-6.8-21.54-10.89l-3-18 9-13 8-16 15-5 6-15 11 1 33-22 17-3 11-19 2 11 4 9z" fill-opacity="1" inkscape:connector-curvature="0" stroke="#2b9e73" stroke-width="1.9" fill="#2b9e73"/>
     </a>
    </g>
    <g stroke="#5a7cd2" fill="#5a7cd2">
     <path d="m1153.9 225.93-3.0263-9.5442 13.036-5.5869 7.2163-13.036 16.761 1.1639 5.1213-13.734 2.5607 22.347 12.105 13.502 6.2853-10.243-2.0951-16.761 13.734-5.8196 3.259 8.6131 3.9573 8.1475 16.062 6.9836 13.967-2.0951 3.259 9.3114-5.1213 20.485-13.502 5.5869-5.8196 16.761-20.718-2.3279-4.4229-10.243-36.082 16.295-20.951-3.0262 4.1902-15.829 10.475-1.8623-10.941-17.226zm-219.52 220.45 9.3114-6.2852 9.3114-10.475 4.8885-13.734-10.01-30.961 16.062-1.1639 25.141-41.901 47.954-5.8196 32.823 33.056-4.8885 15.829-8.1475 3.0262-6.9836 13.967 6.9836 19.321 9.0786 0.93114-2.7934 19.554-17.924 32.124-20.485 12.57-21.882 4.4229-15.364-15.364-32.357-5.5869-8.1475-10.01 6.0524-13.036zm526.62-257.38l9 7 9-5 8 7-11 22-2 8-26-5 2-10 1-11 10-13zm22 170 3 16-9 2-3-11 9-7zl-15-9 16-13-1 22zm1-22-1-14-6-11 15-14-15-9 23-17 11-12 12 30 13 15-18 14h-10l-13 14-11 4zm8-39-15 14 6 11 1 14-16 13-13 2-23-4-12-3 8-46 18 2 31-12 15 9zm5-70 5 24 9 8-11 12-23 17-31 12-18-2-4-10-6-7 2-10 7-8 11-2-22-24-2-20-8-14 17 1 25 18 26 5 2-8 11-22 12 11-2 19zm-89 118 7 6 5-7 12 3 23 4 13-2 15 9-9 7 3 11 9-2 1 12-21 4 1 18-9 3-3 15-18-4-8 4-13-16-1-18h-20l-5-8-3-8 13-4-6-14-15-12 19-7 10 6zm12-74-2 10 6 7 4 10-8 46-5 7-7-6-10-6-19 7-17 1 1-13-22-1v-15l8-17-2-15 10-7 13-4 34 4 16-8zm9 155-4 26-16 1-9 7 9 21-17 5-33 8 11-12-9-41 20 2-2-16 37-17 13 16zm-37 60-12 24-8 4-12 18 1 18-12 4-17 16 15 12-3 8-11 2-11-9-29 2-10-9 2-11v-11l-20 2-9-17-10 2 18-15 10-12-1-14 7-6 9 5 14-6 8 12 48-11 33-8zm-60-53 15 11 14-3 9 41-11 12-48 11-8-12-14 6-9-5-1-14-13-22 14-4v-15l14-2 9 4 10-6 19-2zm47-6 2 16-20-2-14 3-15-11-19 2-5-36 13-4 25-4 22-10 19-5 3 8 5 8h20l1 18-37 17zm-4-320 5 8 22 11 24 1 12-2 8 16-5 9 7 9-3 11 5 12 11 6-10 13-1 11-2 10-25-18-17-1 8 14 2 20 22 24-11 2-7 8-16 8-34-4-13 4-14-7-18-5-14-21-17-15-14-9-14-4-3-9-14 2-16-7-4-8 8-13 26-12 11-7 13-1 44-32 12-3-17-6-9 3-1-13 9 1 14-10 18-5 18 9zm-127-16 6 11 30-1 32 11 1 13 9-3 17 6-12 3-44 32-13 1-11 7-26 12-8 13-3-9-14 6 2 17-6 10-12-13-3-23-45-20 9-17 11-7 15-11 15-31 10-2 14-20 14 10 12 5zm101 210-8 17-9-3-15 9h-25l-7-8-15-4-8 12-9-3-5-12-7 6-22-11 5-10-2-14 22-10-2-9 6-17 13-5 5-21 14 4 14 9 17 15 14 21 18 5 14 7-10 7 2 15zm-107-40 2 9-22 10 2 14-5 10 22 11 7-6 5 12 9 3 12-1 13 14 8 3 8 9-7 9-6 7 12 8-18 4-22 12h-14l-15-2-3-11-14-6-15-20 2-13-20 5-9-12h-13l-4-10 3-9-5-7-10-15 18-11-3-16 20 3 37-16 4 10 21 2zm-85 59 4 10h13l9 12 20-5-2 13 15 20 14 6 3 11 15 2-2 19-16-4-6 8-18-10-31 4-16-1-17-17-7-27-3-21-8-21 9 2 9-3 13-14 5 7-3 9zm128-4 7 8h25l15-9 9 3v15l22 1-1 13 17-1 15 12 6 14-13 4-19 5-22 10-25 4-13 4 5 36-10 6-9-4-29-22-16 8-10 2-8-8-10 4 3-9 6-8 16 4 2-19h14l22-12 18-4-12-8 6-7 7-9-8-9-8-3-13-14-12 1 8-12 15 4zm-126 89 16 1 31-4 18 10-13 13-13 3-11 16-13 3-3-9-13-9-12 12-8-21-16-7 3-14 17-11 17 17zm65 7-3 9 10-4 8 8 10-2 16-8 29 22-14 2v15l-14 4-12-6-42 19-17 6-11 3-12-14-1-11 3-8 13-3 11-16 13-3 13-13zm40 114-18 15 10-2 9 17 20-2v11l-2 11-24 10-1 10-9 6-9-9-16 5-16-23-9-2-9-10-9 5-15 3-19-15 1-8 47-35-14-11 14-25 17-6 42-19 12 6 13 22 1 14-7 6 1 14-10 12zm-113-310 3 9 9 2 11 17-10 2-4 16-11 9-22 2-28-12-25 13-29-22 16-35 31 3 9 3 16-11 24-1 10 5zm-13 204 8 21 12-12 13 9 3 9-3 8 1 11 12 14 11-3-14 25 14 11-40 30-16-12-4-15-15-2-9-15-1-20-30-28-17-10 3-20-9-1-7-19 7-14 8-3 5-16 22 2 12 25 11 4h10l-3 14 16 7zm-81 148 15 12 13-4 21 39 17-10 13 4 12 8-12 14-11-1-11 9-15-6-9-11 5-10-16 7-21-12-11 5-8-5-1-22 19-17zm-44 78 6 16 16-2 9 8 5 18-1 10-13-5-18 8-27-2-4 12-8 3-7-8 7-10-6-10-9 4-15 13-4-12-7-6 1-21-9-14 39-5 3-12-8-16 22-10 11-2-3 11-4 9 4 15 11 6 9 2zm20-106 16 12 10-3-2 19-19 17 1 22-13 3-4-7-10-3-16 3-11 2-22 10 8 16-3 12-39 5 1-16-9-24 2-8-14-13-3-15v-14l24 3 16 1 21 10 5-17 11-16 26-7 24 8zm50-9-3 10-11 2-10 6-10 3-16-12-24-8-26 7-13-10-4-8 15-19 22-12 22-5 20-12 18-32 17 10 30 28 1 20 9 15-12 15-25 2zm-38-279 29 22 25-13 28 12 22-2 11-9 3 16-18 11 10 15-13 14-9 3-9-2 8 21 3 21 7 27-17 11h-10l-11-4-12-25-22-2-33-33-48 6-29-36h-17l-31-19-5-24 6-10 18-9 12 5h13l-1 15 13-4 7 5 15-1 5 8h12l9-10 2-17 10-1 17 9zm-73 303-5 17-21-10-16-1-24-3 1-11-13-29v-17l5-17 11-13 3-12 6-8 15-5h19l-6 13 8 10 33 6 15 15-22 12-15 19 4 8 13 10-11 16zm-119-290 14 6 16-10 24 1 5 24 31 19h17l29 36-25 42-16 1 10 31-5 14-9 10-10 7-15 5-6 8-3 12-11 13-5 17-15-23-16 13 1 14-16 7-12-6v-13l-23 10-5-16-15 3-10-4 4-11-6-33-11-16 21-4 30-21-1-16 15 10-13-47 16-28v-9l-9-8 2-13-4-9v-22l8-4 15-1 3 11zm-26-6v22l4 9-2 13 9 8v9l-16 28 13 47-15-10 1 16-30 21-21 4v-31l-54-16-13-12 4-17 20-19 6-18 15-18 19-12 26-15 34-9zl5-15 3 11-8 4z" fill-opacity="1" inkscape:connector-curvature="0" stroke="#5a7cd2" fill="#5a7cd2"/>
    </g>
    <g transform="matrix(1.3079 .013593 -.013593 1.3079 -493.16 179.8)" display="block" stroke="#e0e066" fill="#e0e066">
     <path d="m1026.2 374.99-1.4467 15.827-2.7322 6.0862 3.7368 12.359-4.4624 5.3504-20.315 6.3908l-4-19.01-7-8-14 3-2-6 12-7 2-7-9 4 5-13-9-2-8-12-9-4-1-10 5-8-4-12 14.156-6.101 8.2872 5.9184 12.357 4.0853 8.2 14.1 17 5-16.751 20.343 14.636 13.203zm-131.2-121.99l5 10 11 2 8 20 8 2v8l10 1 14.251-6.4791 5.9944 8.4661 17.73 4.7358-2.6432 11.085-14.33 6.19 4 12-5 8 1 10 9 4 8 12 9 2-5 13-10-4-17 3-6 9-10 3-10-2-4-8-10 2-15-2-9-9-29-1 5-14 8-12-7-12-2-16 16 4 4 7 6 4 20-1-1-7-24-12 1-11-18-17 4-10-6-10-4-6-11-6v-11l30-9 4 8zm2 129 15 2 10-2 4 8 10 2 10-3 6-9 17-3 10 4 9-4-2 7-12 7 2 6 14-3 7 8 3.8755 19.127 11.439 5.8696 5.9496 4.5564-10.508 8.5648 3.1206 10.495l-17.8 2.38-32 11-22 11-10 8-12-7-1-15-8-2-5-5-19-1-12-8-7-12-11-5 16-13 25-12-10-9 3-21zm32 101 7.3555 2.9518 3.1376 7.399l-20.5 1.65-6 9 2 6-7 1 4 12-26 13-9 11-11 12-18 13-15 21-6-13 5-9-39 1-1-7 9-5-4-13-10-6 8-10-6-17-16-9 14-6 31-20 18-18 3-8 20-1 13-7 12 8 19 1 5 5 8 2 1 15zm0 65 4 9 17.192-10.947 7.4263 10.451 8.8068 14.57-3.0246 16.877l-15.41 21.05-8 11-31 7-7 11-12 5-5 16-9 1-21 17-12-1-5 8-3 19-11 14h-24l-9 2-3-16-10-5-2-25-5 4-4-11 14-7 1-14 8-10 21-6 4-7-2-15 6-6 14-8 15-21 18-13 11-12 11 3 16 20 11-10 7-14zm-125-156 7 7 10-9 10 3 7-8v-17l21 4 29 1-3 21 10 9-25 12-16 13 11 5 7 12-13 7-20 1-3 8-18 18-31 20-14 6-20 12-5 8 12 6-11 4-10 2-12 14-7-7-3-7-9-8 1-8-6-5 6-19 27-18-7-1-22 9-6 15h-10l-5 9-12 3-10 9-8 6-7 8v11l-10 21-11-4-7-11v-11l-8-13-13-4-9-12 5-33 9-3 14-8-1-7 8-8 4-8 17 17 7-3 6-13 20-16 1-14 7-7 8-3 10-10 10-9 8 11 8 6 5 7 16 3 13 7h18l-2-14 6-29 8-16 8 10v18zm-103 110-2 6 4 8 6 5-1 8 9 8 3 7 7 7 12-14 10-2 11-4-12-6 5-8 20-12 16 9 6 17-8 10 10 6 4 13-9 5 1 7 39-1-5 9 6 13-14 8-6 6 2 15-4 7-21 6-8 10-1 14-14 7-14-3-28 16-6-15-10-10h-8l-11-13-11 13-8-2-5 6-9 2v7l-17 16-8 2-15-10 5-7-1-15 8-3-6-14 4-11 10-16 11-12 9-4 6-5 10-14-18-6-8-2-8 3 10-21v-11l7-8 8-6 10-9 12-3 5-9h10z" fill-rule="evenodd" fill-opacity="1" inkscape:connector-curvature="0" stroke="#e0e066" fill="#e0e066"/>
    </g>
   </g>
   <g stroke="#e06678">
    <path d="m491.23 466.54 10.53-5.1005 27.61-10.135 19.621 2.8012 12.968 13.147 13.046 5.3382 14.369 4.0499 14.239 17.065 12.33 14.108-0.1431 14.317 13.399 7.9545 6.5579 9.026 6.7976 11.465-4.671 14.126 22.657 22.364-0.52177 14.769 30.581 15.237 0.98596 9.8223-26.442 1.503-7.8068-5.2854-5.1482-9.1636-20.905-5.4175-31.539 10.095-9.1166-5.2986-18.376 3.7197-18.532 19.338-36.414-26.401 4.1115-18.182-5.1352-10.465-17.119 8.939-19.634-1.4996 2.7367-11.687 6.6401-9.0447 6.6141-6.4416-7.4035-45.633-9.0516-11.806-7.7027-15.698-2.4895-13.042 0.15611-15.618 5.3953-15.566 10.413 6.6133zm-3.114 49.432 7.4035 45.633-6.6141 6.4416-6.6401 9.0447-2.7367 11.687-18.272-6.6926-0.24717 24.729 15.444 27.491-1.4009 9.0975-8.041 18.142 1.1667 14.33-10.596 11.608-9.2337 6.4152-10.53 5.1005-13.215 11.582-4.979-26.084 11.97-18.103-7.7808-7.8885 4.0205-9.0711-15.523-19.682-5.1221-11.767-21.022 6.2964-2.5416-7.8356 28.998-17.931-6.458-9.1768-6.458-9.1768-6.6271 7.7432-11.762-2.7219-2.5285-9.1372-10.452-2.7087 6.9913-44.186 8.0019-14.238 16.988 4.0763 30.334-20.521 40.708-10.003 7.7027 15.698zm-8.5873 72.807 19.634 1.4996 17.119-8.939 5.1352 10.465-4.1115 18.182 36.414 26.401 18.532-19.338 18.376-3.7197 9.1166 5.2986 31.539-10.095 3.5754 20.385 7.8486 16.176-10.635 15.513-6.7312 18.155-27.454-5.4835-0.22115 22.126-9.2727 10.32-13.059-4.0367-13.215 11.582-9.0776-9.2032 0.23416-23.428-10.348-13.121-10.687 20.719-8.2361 37.665 2.4375 18.248-23.576-0.23774-16.936-9.2825-20.918-4.1159-6.458-9.1768-10.4-7.9149-10.335-14.423 10.53-5.1005 9.2337-6.4152 10.596-11.608-1.1667-14.33 8.041-18.142 1.4009-9.0975-15.444-27.491 0.24717-24.729zm-104.2-59.626-6.9913 44.186-19.582-6.7058-15.744 2.4446 1.4139-10.399-16.949-7.9809-5.0701-16.973 11.788 0.11887 4.1115-18.182-5.1612-7.862 13.176-7.6771 9.0516 11.806zm72.577-184.1 9.1166 5.2986-6.6791 12.949 19.465 18.42-6.7051 15.552 16.832 19.695-5.5124 27.279-5.3953 15.566-0.15611 15.618 2.4895 13.042-40.708 10.003-30.334 20.521-16.988-4.0763-8.0019 14.238-29.956-17.224-9.0516-11.806 0.18213-18.222 9.2597-9.0183 8.093-23.348-2.4895-13.042 22.475-20.6 14.655-24.584 13.332-23.296-6.471-7.8753 13.28-18.089 22.566-29.711 10.465 1.4072-1.4269 11.701-0.10407 10.412zm-111.58 155.07-13.176 7.6771 5.1612 7.862-4.1115 18.182-11.788-0.11887-20.879-8.0205-16.988-4.0763-11.58-20.943-13.059-4.0367 13.215-11.582 14.538-12.87-10.283-19.629 0.16912-16.92 10.348 13.121 15.692 2.7616 6.6141-6.4416-2.4505-16.946-1.2318-7.8224 2.7107-9.0843 9.2597-9.0183 26.404-20.56 4.0205-9.0711 14.551-14.172 25.003-11.463 14.369 4.0499 15.809-8.9523-13.28 18.089 6.471 7.8753-13.332 23.296-14.655 24.584-22.475 20.6 2.4895 13.042-8.093 23.348-9.2597 9.0183zm-23.915 33.602 5.0701 16.973 16.949 7.9809-1.4139 10.399 15.744-2.4446 19.582 6.7058-11.801 1.1827-7.9369 7.73 8.9605 20.917-1.518 20.811-15.939 21.968-22.098-17.145-18.506 16.735-11.736-5.325-20.957-0.21133-13.176 7.6771-10.504 2.4974-10.4-7.9149 19.803-15.42 4.2026-27.293-14.239-17.065 1.4659-15.605-6.471-7.8753 2.7107-9.0843 33.899 15.962 9.3247-15.526 8.106-24.65zm68.912 51.46 11.762 2.7219 6.6271-7.7432 6.458 9.1768 6.458 9.1768-28.998 17.931 2.5416 7.8356 21.022-6.2964 5.1221 11.767 15.523 19.682-4.0205 9.0711 7.7808 7.8885-11.97 18.103 4.979 26.084-13.228 12.883-10.517 3.799-9.2597 9.0183-1.4919 18.208-26.404 20.56-8.0279 16.841-9.2077 3.8122-22.046-22.351-1.1407-16.933-14.278-13.161-2.5025-11.74 21.607-64.865 9.2727-10.32 2.7237-10.386 15.939-21.968 1.518-20.811-8.9605-20.917 7.9369-7.73 11.801-1.1827 10.452 2.7087zm-131.42-88.537 13.059 4.0367 11.58 20.943 16.988 4.0763-8.106 24.65-9.3247 15.526-33.899-15.962-2.7107 9.0843-36.662-1.6714-10.374-10.518 0.19514-19.523 41.059-45.144 5.0831 15.671zm24.322-205.42 10.4 7.9149 3.6562 27.372 19.647 0.19812 17.106-7.6375 5.1612 7.862 9.1946-2.5106-1.544 23.414 15.614 10.571-14.551 14.172-4.0205 9.0711-26.404 20.56-9.2597 9.0183-2.7107 9.0843 1.2318 7.8224 2.4505 16.946-6.6141 6.4416-15.692-2.7616-10.348-13.121-0.16912 16.92 10.283 19.629-14.538 12.87-13.215 11.582-13.111 1.1694-5.0831-15.671 6.8222-27.266-13.202 10.28-10.439-4.0103-22.059-21.049 6.6401-9.0447-7.7548-10.492-3.7473-18.261-6.2758-27.398-19.504-14.515 26.339-14.053 9.2727-10.32-3.7733-15.658 8.0149-15.539 9.2597-9.0183 10.452 2.7087 18.506-16.735 17.053-2.4314 9.2207-5.1137zm-73.396 266.1-0.15611 15.618-11.879 8.9919 2.4375 18.248-1.5179 20.811-35.352-1.6582 4.1766-24.69-10.439-4.0103 4.1636-23.388 11.97-18.103 13.15-5.0741 4.0595-12.976 9.2077-3.8122-0.19514 19.523zm36.662 1.6714 6.471 7.8753-1.4659 15.605 14.239 17.065-4.2026 27.293-19.803 15.42 10.4 7.9149 10.504-2.4974-1.4529 14.304-15.9 18.063 5.0311 20.877-5.3953 15.566-14.629 21.981-23.537-4.1424-5.3173 7.7564-9.2207 5.1137-21.256 29.724-5.3173 7.7564-7.8979 3.8254-7.7418-11.793-7.4686-39.125 10.713-23.322-15.484-23.586-3.7083-22.166-12.955-14.449 0.24717-24.729 28.881-6.2171 13.137-3.7725 35.352 1.6582 1.5179-20.811-2.4375-18.248 11.879-8.9919 0.15611-15.618zm102.62 86.945-2.7237 10.386-9.2727 10.32-21.607 64.865 2.5025 11.74 14.278 13.161 1.1407 16.933-5.3433 10.359-10.583 10.307 1.2187 9.124-18.441 10.227-11.827 3.7857-1.0626-24.742-11.658-13.134-31.344-9.4277-10.491 1.1959-4.0075 7.7696-15.718-0.1585-23.811 23.19-44.755 21.677-11.827 3.7857 1.57-26.018 9.2467-7.7168 13.15-5.0741 7.8979-3.8254 5.3173-7.7564 21.256-29.724 9.2207-5.1137 5.3173-7.7564 23.537 4.1424 14.629-21.981 5.3953-15.566-5.0311-20.877 15.9-18.063 1.4529-14.304 13.176-7.6771 20.957 0.21133 11.736 5.325 18.506-16.735zm-60.658 171.21-6.9783 42.885 11.632 15.737 16.975 5.3778 11.473 18.19-0.84146 13.386-16.235 4.8149-10.752 27.227-11.983 19.404-6.484-6.5737-15.809 8.9523-10.452-2.7087-11.866 7.6904-3.8514-7.8488-14.356-5.3514-9.2597 9.0183-18.35 1.1166-22.371 10.188-5.1742-6.5605-9.2207 5.1137-2.5155-10.439-10.517 3.799-5.1742-6.5605-16.676-35.313-10.452-2.7087-3.8384-9.1504 8.067-20.745 4.0855-15.579 9.3638-19.431 2.7497-12.989-6.4319-11.78 10.57-9.0051 11.827-3.7857 44.755-21.677 23.811-23.19 15.718 0.1585 4.0075-7.7696 10.491-1.1959 31.344 9.4277 11.658 13.134z" fill-rule="evenodd" fill-opacity="1" inkscape:connector-curvature="0" stroke="#e06678" stroke-width="1.3057" fill="#e06678"/>
   </g>
  </g>
 </g>
</svg>
