<svg xmlns:inkscape="http://www.inkscape.org/namespaces/inkscape" xmlns:rdf="http://www.w3.org/1999/02/22-rdf-syntax-ns#" xmlns="http://www.w3.org/2000/svg" sodipodi:docname="peebleshire.svg" version="1.1" xmlns:cc="http://creativecommons.org/ns#" xmlns:dc="http://purl.org/dc/elements/1.1/" inkscape:version="0.91 r13725" viewBox="0 0 596.63942 706.14986" xmlns:sodipodi="http://sodipodi.sourceforge.net/DTD/sodipodi-0.dtd">
 <sodipodi:namedview bordercolor="#666666" inkscape:pageshadow="2" inkscape:window-y="24" fit-margin-left="0" pagecolor="#ffffff" fit-margin-top="0" inkscape:window-maximized="1" inkscape:zoom="0.35" inkscape:window-x="3840" inkscape:window-height="1031" showgrid="false" borderopacity="1.0" inkscape:current-layer="layer1" inkscape:cx="-455.25171" inkscape:cy="541.64635" fit-margin-right="0" fit-margin-bottom="0" inkscape:window-width="1920" inkscape:pageopacity="0.0" inkscape:document-units="px"/>
 <g inkscape:label="Layer 1" inkscape:groupmode="layer" transform="translate(-75.966 -367.86)">
  <g fill-rule="evenodd" transform="translate(-19.7 94.544)" display="block" stroke="#000" stroke-width="1.3057" fill="#e06678">
   <path d="m279.45 817.15-6.9783 42.885 11.632 15.737 16.975 5.3778 11.473 18.19-0.84146 13.386-16.235 4.8149-10.752 27.227-11.983 19.404-6.484-6.5737-15.809 8.9523-10.452-2.7087-11.866 7.6904-3.8514-7.8488-14.356-5.3514-9.2597 9.0183-18.35 1.1166-22.371 10.188-5.1742-6.5605-9.2207 5.1137-2.5155-10.439-10.517 3.799-5.1742-6.5605-16.676-35.313-10.452-2.7087-3.8384-9.1504 8.067-20.745 4.0855-15.579 9.3638-19.431 2.7497-12.989-6.4319-11.78 10.57-9.0051 11.827-3.7857 44.755-21.677 23.811-23.19 15.718 0.1585 4.0075-7.7696 10.491-1.1959 31.344 9.4277 11.658 13.134z" sodipodi:nodetypes="ccccccccccccccccccccccccccccccccccccccccc" inkscape:connector-curvature="0" path="M 596,481 591,514 600,526 613,530 621,543 621,554 609,558 601,579 592,594 587,589 575,596 567,594 558,600 555,594 544,590 537,597 523,598 506,606 502,601 495,605 493,597 485,600 481,595 468,568 460,566 457,559 463,543 466,531 473,516 475,506 470,497 478,490 487,487 521,470 539,452 551,452 554,446 562,445 586,452 595,462 596,481 Z" dojoGfxStrokeStyle="solid"/>
   <path d="m340.11 645.95-2.7237 10.386-9.2727 10.32-21.607 64.865 2.5025 11.74 14.278 13.161 1.1407 16.933-5.3433 10.359-10.583 10.307 1.2187 9.124-18.441 10.227-11.827 3.7857-1.0626-24.742-11.658-13.134-31.344-9.4277-10.491 1.1959-4.0075 7.7696-15.718-0.1585-23.811 23.19-44.755 21.677-11.827 3.7857 1.57-26.018 9.2467-7.7168 13.15-5.0741 7.8979-3.8254 5.3173-7.7564 21.256-29.724 9.2207-5.1137 5.3173-7.7564 23.537 4.1424 14.629-21.981 5.3953-15.566-5.0311-20.877 15.9-18.063 1.4529-14.304 13.176-7.6771 20.957 0.21133 11.736 5.325 18.506-16.735z" sodipodi:nodetypes="cccccccccccccccccccccccccccccccccccccccc" inkscape:connector-curvature="0" path="M 641,349 639,357 632,365 616,415 618,424 629,434 630,447 626,455 618,463 619,470 605,478 596,481 595,462 586,452 562,445 554,446 551,452 539,452 521,470 487,487 478,490 479,470 486,464 496,460 502,457 506,451 522,428 529,424 533,418 551,421 562,404 566,392 562,376 574,362 575,351 585,345 601,345 610,349 624,336 641,349 Z" dojoGfxStrokeStyle="solid"/>
   <path d="m237.49 559 6.471 7.8753-1.4659 15.605 14.239 17.065-4.2026 27.293-19.803 15.42 10.4 7.9149 10.504-2.4974-1.4529 14.304-15.9 18.063 5.0311 20.877-5.3953 15.566-14.629 21.981-23.537-4.1424-5.3173 7.7564-9.2207 5.1137-21.256 29.724-5.3173 7.7564-7.8979 3.8254-7.7418-11.793-7.4686-39.125 10.713-23.322-15.484-23.586-3.7083-22.166-12.955-14.449 0.24717-24.729 28.881-6.2171 13.137-3.7725 35.352 1.6582 1.5179-20.811-2.4375-18.248 11.879-8.9919 0.15611-15.618z" sodipodi:nodetypes="cccccccccccccccccccccccccccccccccc" inkscape:connector-curvature="0" path="M 562,283 567,289 566,301 577,314 574,335 559,347 567,353 575,351 574,362 562,376 566,392 562,404 551,421 533,418 529,424 522,428 506,451 502,457 496,460 490,451 484,421 492,403 480,385 477,368 467,357 467,338 489,333 499,330 526,331 527,315 525,301 534,294 534,282 562,283 Z" dojoGfxStrokeStyle="solid"/>
   <path d="m200.83 557.33-0.15611 15.618-11.879 8.9919 2.4375 18.248-1.5179 20.811-35.352-1.6582 4.1766-24.69-10.439-4.0103 4.1636-23.388 11.97-18.103 13.15-5.0741 4.0595-12.976 9.2077-3.8122-0.19514 19.523z" sodipodi:nodetypes="ccccccccccccccc" inkscape:connector-curvature="0" path="M 534,282 534,294 525,301 527,315 526,331 499,330 502,311 494,308 497,290 506,276 516,272 519,262 526,259 526,274 534,282 Z" dojoGfxStrokeStyle="solid"/>
   <path d="m274.22 291.23 10.4 7.9149 3.6562 27.372 19.647 0.19812 17.106-7.6375 5.1612 7.862 9.1946-2.5106-1.544 23.414 15.614 10.571-14.551 14.172-4.0205 9.0711-26.404 20.56-9.2597 9.0183-2.7107 9.0843 1.2318 7.8224 2.4505 16.946-6.6141 6.4416-15.692-2.7616-10.348-13.121-0.16912 16.92 10.283 19.629-14.538 12.87-13.215 11.582-13.111 1.1694-5.0831-15.671 6.8222-27.266-13.202 10.28-10.439-4.0103-22.059-21.049 6.6401-9.0447-7.7548-10.492-3.7473-18.261-6.2758-27.398-19.504-14.515 26.339-14.053 9.2727-10.32-3.7733-15.658 8.0149-15.539 9.2597-9.0183 10.452 2.7087 18.506-16.735 17.053-2.4314 9.2207-5.1137z" sodipodi:nodetypes="cccccccccccccccccccccccccccccccccccccccccccc" inkscape:connector-curvature="0" path="M 588,77 596,83 599,104 614,104 627,98 631,104 638,102 637,120 649,128 638,139 635,146 615,162 608,169 606,176 607,182 609,195 604,200 592,198 584,188 584,201 592,216 581,226 571,235 561,236 557,224 562,203 552,211 544,208 527,192 532,185 526,177 523,163 518,142 503,131 523,120 530,112 527,100 533,88 540,81 548,83 562,70 575,68 582,64 588,77 Z" dojoGfxStrokeStyle="solid"/>
   <path d="m249.9 496.65 13.059 4.0367 11.58 20.943 16.988 4.0763-8.106 24.65-9.3247 15.526-33.899-15.962-2.7107 9.0843-36.662-1.6714-10.374-10.518 0.19514-19.523 41.059-45.144 5.0831 15.671z" sodipodi:nodetypes="cccccccccccccc" inkscape:connector-curvature="0" path="M 571,235 581,238 590,254 603,257 597,276 590,288 564,276 562,283 534,282 526,274 526,259 557,224 561,236 571,235 Z" dojoGfxStrokeStyle="solid"/>
   <path d="m381.32 585.18 11.762 2.7219 6.6271-7.7432 6.458 9.1768 6.458 9.1768-28.998 17.931 2.5416 7.8356 21.022-6.2964 5.1221 11.767 15.523 19.682-4.0205 9.0711 7.7808 7.8885-11.97 18.103 4.979 26.084-13.228 12.883-10.517 3.799-9.2597 9.0183-1.4919 18.208-26.404 20.56-8.0279 16.841-9.2077 3.8122-22.046-22.351-1.1407-16.933-14.278-13.161-2.5025-11.74 21.607-64.865 9.2727-10.32 2.7237-10.386 15.939-21.968 1.518-20.811-8.9605-20.917 7.9369-7.73 11.801-1.1827 10.452 2.7087z" sodipodi:nodetypes="ccccccccccccccccccccccccccccccccccc" inkscape:connector-curvature="0" path="M 672,302 681,304 686,298 691,305 696,312 674,326 676,332 692,327 696,336 708,351 705,358 711,364 702,378 706,398 696,408 688,411 681,418 680,432 660,448 654,461 647,464 630,447 629,434 618,424 616,415 632,365 639,357 641,349 653,332 654,316 647,300 653,294 662,293 670,295 672,302 Z" dojoGfxStrokeStyle="solid"/>
   <path d="m312.41 533.72 5.0701 16.973 16.949 7.9809-1.4139 10.399 15.744-2.4446 19.582 6.7058-11.801 1.1827-7.9369 7.73 8.9605 20.917-1.518 20.811-15.939 21.968-22.098-17.145-18.506 16.735-11.736-5.325-20.957-0.21133-13.176 7.6771-10.504 2.4974-10.4-7.9149 19.803-15.42 4.2026-27.293-14.239-17.065 1.4659-15.605-6.471-7.8753 2.7107-9.0843 33.899 15.962 9.3247-15.526 8.106-24.65z" sodipodi:nodetypes="cccccccccccccccccccccccccccc" inkscape:connector-curvature="0" path="M 619,263 623,276 636,282 635,290 647,288 662,293 653,294 647,300 654,316 653,332 641,349 624,336 610,349 601,345 585,345 575,351 567,353 559,347 574,335 577,314 566,301 567,289 562,283 564,276 590,288 597,276 603,257 619,263 Z" dojoGfxStrokeStyle="solid"/>
   <path d="m336.32 500.12-13.176 7.6771 5.1612 7.862-4.1115 18.182-11.788-0.11887-20.879-8.0205-16.988-4.0763-11.58-20.943-13.059-4.0367 13.215-11.582 14.538-12.87-10.283-19.629 0.16912-16.92 10.348 13.121 15.692 2.7616 6.6141-6.4416-2.4505-16.946-1.2318-7.8224 2.7107-9.0843 9.2597-9.0183 26.404-20.56 4.0205-9.0711 14.551-14.172 25.003-11.463 14.369 4.0499 15.809-8.9523-13.28 18.089 6.471 7.8753-13.332 23.296-14.655 24.584-22.475 20.6 2.4895 13.042-8.093 23.348-9.2597 9.0183z" sodipodi:nodetypes="ccccccccccccccccccccccccccccccccccc" inkscape:connector-curvature="0" path="M 637,237 627,243 631,249 628,263 619,263 603,257 590,254 581,238 571,235 581,226 592,216 584,201 584,188 592,198 604,200 609,195 607,182 606,176 608,169 615,162 635,146 638,139 649,128 668,119 679,122 691,115 681,129 686,135 676,153 665,172 648,188 650,198 644,216 637,223 637,237 Z" dojoGfxStrokeStyle="solid"/>
   <path d="m447.91 345.05 9.1166 5.2986-6.6791 12.949 19.465 18.42-6.7051 15.552 16.832 19.695-5.5124 27.279-5.3953 15.566-0.15611 15.618 2.4895 13.042-40.708 10.003-30.334 20.521-16.988-4.0763-8.0019 14.238-29.956-17.224-9.0516-11.806 0.18213-18.222 9.2597-9.0183 8.093-23.348-2.4895-13.042 22.475-20.6 14.655-24.584 13.332-23.296-6.471-7.8753 13.28-18.089 22.566-29.711 10.465 1.4072-1.4269 11.701-0.10407 10.412z" sodipodi:nodetypes="cccccccccccccccccccccccccccccc" inkscape:connector-curvature="0" path="M 721,117 728,121 723,131 738,145 733,157 746,172 742,193 738,205 738,217 740,227 709,235 686,251 673,248 667,259 644,246 637,237 637,223 644,216 650,198 648,188 665,172 676,153 686,135 681,129 691,115 708,92 716,93 715,102 715,110 721,117 Z" dojoGfxStrokeStyle="solid"/>
   <path d="m375.33 529.15-6.9913 44.186-19.582-6.7058-15.744 2.4446 1.4139-10.399-16.949-7.9809-5.0701-16.973 11.788 0.11887 4.1115-18.182-5.1612-7.862 13.176-7.6771 9.0516 11.806z" sodipodi:nodetypes="ccccccccccccc" inkscape:connector-curvature="0" path="M 667,259 662,293 647,288 635,290 636,282 623,276 619,263 628,263 631,249 627,243 637,237 644,246 667,259 Z" dojoGfxStrokeStyle="solid"/>
   <path d="m479.53 588.78 19.634 1.4996 17.119-8.939 5.1352 10.465-4.1115 18.182 36.414 26.401 18.532-19.338 18.376-3.7197 9.1166 5.2986 31.539-10.095 3.5754 20.385 7.8486 16.176-10.635 15.513-6.7312 18.155-27.454-5.4835-0.22115 22.126-9.2727 10.32-13.059-4.0367-13.215 11.582-9.0776-9.2032 0.23416-23.428-10.348-13.121-10.687 20.719-8.2361 37.665 2.4375 18.248-23.576-0.23774-16.936-9.2825-20.918-4.1159-6.458-9.1768-10.4-7.9149-10.335-14.423 10.53-5.1005 9.2337-6.4152 10.596-11.608-1.1667-14.33 8.041-18.142 1.4009-9.0975-15.444-27.491 0.24717-24.729z" sodipodi:nodetypes="cccccccccccccccccccccccccccccccccccccccc" inkscape:connector-curvature="0" path="M 747,304 762,305 775,298 779,306 776,320 804,340 818,325 832,322 839,326 863,318 865,334 872,346 864,358 859,372 838,368 838,385 831,393 821,390 811,399 804,392 804,374 796,364 788,380 782,409 784,423 766,423 753,416 737,413 732,406 724,400 716,389 724,385 731,380 739,371 738,360 744,346 745,339 733,318 733,299 747,304 Z" dojoGfxStrokeStyle="solid"/>
   <path d="m488.12 515.97 7.4035 45.633-6.6141 6.4416-6.6401 9.0447-2.7367 11.687-18.272-6.6926-0.24717 24.729 15.444 27.491-1.4009 9.0975-8.041 18.142 1.1667 14.33-10.596 11.608-9.2337 6.4152-10.53 5.1005-13.215 11.582-4.979-26.084 11.97-18.103-7.7808-7.8885 4.0205-9.0711-15.523-19.682-5.1221-11.767-21.022 6.2964-2.5416-7.8356 28.998-17.931-6.458-9.1768-6.458-9.1768-6.6271 7.7432-11.762-2.7219-2.5285-9.1372-10.452-2.7087 6.9913-44.186 8.0019-14.238 16.988 4.0763 30.334-20.521 40.708-10.003 7.7027 15.698z" sodipodi:nodetypes="ccccccccccccccccccccccccccccccccccccc" inkscape:connector-curvature="0" path="M 753,248 759,283 754,288 749,295 747,304 733,299 733,318 745,339 744,346 738,360 739,371 731,380 724,385 716,389 706,398 702,378 711,364 705,358 708,351 696,336 692,327 676,332 674,326 696,312 691,305 686,298 681,304 672,302 670,295 662,293 667,259 673,248 686,251 709,235 740,227 746,239 753,248 Z" dojoGfxStrokeStyle="solid"/>
   <path d="m491.23 466.54 10.53-5.1005 27.61-10.135 19.621 2.8012 12.968 13.147 13.046 5.3382 14.369 4.0499 14.239 17.065 12.33 14.108-0.1431 14.317 13.399 7.9545 6.5579 9.026 6.7976 11.465-4.671 14.126 22.657 22.364-0.52177 14.769 30.581 15.237 0.98596 9.8223-26.442 1.503-7.8068-5.2854-5.1482-9.1636-20.905-5.4175-31.539 10.095-9.1166-5.2986-18.376 3.7197-18.532 19.338-36.414-26.401 4.1115-18.182-5.1352-10.465-17.119 8.939-19.634-1.4996 2.7367-11.687 6.6401-9.0447 6.6141-6.4416-7.4035-45.633-9.0516-11.806-7.7027-15.698-2.4895-13.042 0.15611-15.618 5.3953-15.566 10.413 6.6133z" sodipodi:nodetypes="cccccccccccccccccccccccccccccccccccccccccc" inkscape:connector-curvature="0" path="M 755,210 763,206 784,198 799,200 809,210 819,214 830,217 841,230 850,242 850,253 861,259 865,265 871,275 867,285 885,302 884,313 908,325 909,332 889,333 883,329 879,322 863,318 839,326 832,322 818,325 804,340 776,320 779,306 775,298 762,305 747,304 749,295 754,288 759,283 753,248 746,239 740,227 738,217 738,205 742,193 750,198 755,210 Z" dojoGfxStrokeStyle="solid"/>
  </g>
 </g>
</svg>
