<svg xmlns:inkscape="http://www.inkscape.org/namespaces/inkscape" xmlns:rdf="http://www.w3.org/1999/02/22-rdf-syntax-ns#" xmlns="http://www.w3.org/2000/svg" version="1.1" xmlns:cc="http://creativecommons.org/ns#" xmlns:dc="http://purl.org/dc/elements/1.1/" inkscape:version="0.91 r13725" viewBox="0 0 572.47636 636.01324" xmlns:sodipodi="http://sodipodi.sourceforge.net/DTD/sodipodi-0.dtd">
 <sodipodi:namedview bordercolor="#666666" inkscape:pageshadow="2" inkscape:window-y="24" fit-margin-left="0" pagecolor="#ffffff" fit-margin-top="0" inkscape:window-maximized="1" inkscape:zoom="0.35" inkscape:window-x="3840" inkscape:window-height="1031" showgrid="false" borderopacity="1.0" inkscape:current-layer="layer1" inkscape:cx="-478.76182" inkscape:cy="469.43518" fit-margin-right="0" fit-margin-bottom="0" inkscape:window-width="1920" inkscape:pageopacity="0.0" inkscape:document-units="px"/>
 <g inkscape:label="Layer 1" inkscape:groupmode="layer" transform="translate(-99.476 -365.78)">
  <g fill-rule="evenodd" transform="matrix(1.3079 .013593 -.013593 1.3079 -665.84 49.851)" display="block" stroke="#000" fill="#e0e066">
   <path d="m701 502-2 6 4 8 6 5-1 8 9 8 3 7 7 7 12-14 10-2 11-4-12-6 5-8 20-12 16 9 6 17-8 10 10 6 4 13-9 5 1 7 39-1-5 9 6 13-14 8-6 6 2 15-4 7-21 6-8 10-1 14-14 7-14-3-28 16-6-15-10-10h-8l-11-13-11 13-8-2-5 6-9 2v7l-17 16-8 2-15-10 5-7-1-15 8-3-6-14 4-11 10-16 11-12 9-4 6-5 10-14-18-6-8-2-8 3 10-21v-11l7-8 8-6 10-9 12-3 5-9h10z" inkscape:connector-curvature="0" path="M 701,502 699,508 703,516 709,521 708,529 717,537 720,544 727,551 739,537 749,535 760,531 748,525 753,517 773,505 789,514 795,531 787,541 797,547 801,560 792,565 793,572 832,571 827,580 833,593 819,601 813,607 815,622 811,629 790,635 782,645 781,659 767,666 753,663 725,679 719,664 709,654 701,654 690,641 679,654 671,652 666,658 657,660 657,667 640,683 632,685 617,675 622,668 621,653 629,650 623,636 627,625 637,609 648,597 657,593 663,588 673,574 655,568 647,566 639,569 649,548 649,537 656,529 664,523 674,514 686,511 691,502 701,502 Z" dojoGfxStrokeStyle="solid"/>
   <path d="m804 392 7 7 10-9 10 3 7-8v-17l21 4 29 1-3 21 10 9-25 12-16 13 11 5 7 12-13 7-20 1-3 8-18 18-31 20-14 6-20 12-5 8 12 6-11 4-10 2-12 14-7-7-3-7-9-8 1-8-6-5 6-19 27-18-7-1-22 9-6 15h-10l-5 9-12 3-10 9-8 6-7 8v11l-10 21-11-4-7-11v-11l-8-13-13-4-9-12 5-33 9-3 14-8-1-7 8-8 4-8 17 17 7-3 6-13 20-16 1-14 7-7 8-3 10-10 10-9 8 11 8 6 5 7 16 3 13 7h18l-2-14 6-29 8-16 8 10v18z" inkscape:connector-curvature="0" path="M 804,392 811,399 821,390 831,393 838,385 838,368 859,372 888,373 885,394 895,403 870,415 854,428 865,433 872,445 859,452 839,453 836,461 818,479 787,499 773,505 753,517 748,525 760,531 749,535 739,537 727,551 720,544 717,537 708,529 709,521 703,516 709,497 736,479 729,478 707,487 701,502 691,502 686,511 674,514 664,523 656,529 649,537 649,548 639,569 628,565 621,554 621,543 613,530 600,526 591,514 596,481 605,478 619,470 618,463 626,455 630,447 647,464 654,461 660,448 680,432 681,418 688,411 696,408 706,398 716,389 724,400 732,406 737,413 753,416 766,423 784,423 782,409 788,380 796,364 804,374 804,392 Z" dojoGfxStrokeStyle="solid"/>
   <path d="m929 548 4 9 17.192-10.947 7.4263 10.451 8.8068 14.57-3.0246 16.877l-15.41 21.05-8 11-31 7-7 11-12 5-5 16-9 1-21 17-12-1-5 8-3 19-11 14h-24l-9 2-3-16-10-5-2-25-5 4-4-11 14-7 1-14 8-10 21-6 4-7-2-15 6-6 14-8 15-21 18-13 11-12 11 3 16 20 11-10 7-14z" sodipodi:nodetypes="ccccccccccccccccccccccccccccccccccccccccc" inkscape:connector-curvature="0" path="M 929,548 933,557 949,547 957,557 965,571 963,588 948,609 940,620 909,627 902,638 890,643 885,659 876,660 855,677 843,676 838,684 835,703 824,717 800,717 791,719 788,703 778,698 776,673 771,677 767,666 781,659 782,645 790,635 811,629 815,622 813,607 819,601 833,593 848,572 866,559 877,547 888,550 904,570 915,560 922,546 929,548 Z" dojoGfxStrokeStyle="solid"/>
   <path d="m929 483 7.3555 2.9518 3.1376 7.399l-20.5 1.65-6 9 2 6-7 1 4 12-26 13-9 11-11 12-18 13-15 21-6-13 5-9-39 1-1-7 9-5-4-13-10-6 8-10-6-17-16-9 14-6 31-20 18-18 3-8 20-1 13-7 12 8 19 1 5 5 8 2 1 15z" sodipodi:nodetypes="ccccccccccccccccccccccccccccccccccc" inkscape:connector-curvature="0" path="M 929,483 936,486 939,493 919,495 913,504 915,510 908,511 912,523 886,536 877,547 866,559 848,572 833,593 827,580 832,571 793,572 792,565 801,560 797,547 787,541 795,531 789,514 773,505 787,499 818,479 836,461 839,453 859,452 872,445 884,453 903,454 908,459 916,461 917,476 929,483 Z" dojoGfxStrokeStyle="solid"/>
   <path d="m897 382 15 2 10-2 4 8 10 2 10-3 6-9 17-3 10 4 9-4-2 7-12 7 2 6 14-3 7 8 3.8755 19.127 11.439 5.8696 5.9496 4.5564-10.508 8.5648 3.1206 10.495l-17.8 2.38-32 11-22 11-10 8-12-7-1-15-8-2-5-5-19-1-12-8-7-12-11-5 16-13 25-12-10-9 3-21z" sodipodi:nodetypes="ccccccccccccccccccccccccccccccccccccc" inkscape:connector-curvature="0" path="M 897,382 912,384 922,382 926,390 936,392 946,389 952,380 969,377 979,381 988,377 986,384 974,391 976,397 990,394 997,402 1001,421 1012,427 1017,431 1007,440 1010,451 993,453 961,464 939,475 929,483 917,476 916,461 908,459 903,454 884,453 872,445 865,433 854,428 870,415 895,403 885,394 888,373 897,382 Z" dojoGfxStrokeStyle="solid"/>
   <path d="m895 253 5 10 11 2 8 20 8 2v8l10 1 14.251-6.4791 5.9944 8.4661 17.73 4.7358-2.6432 11.085-14.33 6.18 4 12-5 8 1 10 9 4 8 12 9 2-5 13-10-4-17 3-6 9-10 3-10-2-4-8-10 2-15-2-9-9-29-1 5-14 8-12-7-12-2-16 16 4 4 7 6 4 20-1-1-7-24-12 1-11-18-17 4-10-6-10-4-6-11-6v-11l30-9 4 8z" sodipodi:nodetypes="ccccccccccccccccccccccccccccccccccccccccccccccccc" inkscape:connector-curvature="0" path="M 895,253 900,263 911,265 919,285 927,287 927,295 937,296 950,289 956,298 974,303 971,314 958,320 962,332 957,340 958,350 967,354 975,366 984,368 979,381 969,377 952,380 946,389 936,392 926,390 922,382 912,384 897,382 888,373 859,372 864,358 872,346 865,334 863,318 879,322 883,329 889,333 909,332 908,325 884,313 885,302 867,285 871,275 865,265 861,259 850,253 850,242 880,233 884,241 895,253 Z" dojoGfxStrokeStyle="solid"/>
   <path d="m1026.2 374.99-1.4467 15.827-2.7322 6.0862 3.7368 12.359-4.4624 5.3504-20.315 6.3908l-4-19.01-7-8-14 3-2-6 12-7 2-7-9 4 5-13-9-2-8-12-9-4-1-10 5-8-4-12 14.156-6.101 8.2872 5.9184 12.357 4.0853 8.2 14.1 17 5-16.751 20.343 14.636 13.203z" sodipodi:nodetypes="cccccccccccccccccccccccccccc" inkscape:connector-curvature="0" path="M 1025,375 1024,391 1021,397 1025,409 1020,414 1001,421 997,402 990,394 976,397 974,391 986,384 988,377 979,381 984,368 975,366 967,354 958,350 957,340 962,332 958,320 971,314 980,320 992,324 1001,338 1018,343 1000,363 1015,377 1025,375 Z" dojoGfxStrokeStyle="solid"/>
  </g>
 </g>
</svg>
