<?xml version="1.0" encoding="UTF-8" standalone="no"?>
<svg
   xmlns:dc="http://purl.org/dc/elements/1.1/"
   xmlns:cc="http://creativecommons.org/ns#"
   xmlns:rdf="http://www.w3.org/1999/02/22-rdf-syntax-ns#"
   xmlns:svg="http://www.w3.org/2000/svg"
   xmlns="http://www.w3.org/2000/svg"
   xmlns:sodipodi="http://sodipodi.sourceforge.net/DTD/sodipodi-0.dtd"
   xmlns:inkscape="http://www.inkscape.org/namespaces/inkscape"
   sodipodi:docname="counties.svg"
   viewBox="0 0 600.00002 600"
   version="1.1"
   inkscape:version="0.91 r13725"
   overflow="hidden"
   id="svg2"
   width="600"
   height="600"
   style="overflow:hidden">
  <metadata
     id="metadata36">
    <rdf:RDF>
      <cc:Work
         rdf:about="">
        <dc:format>image/svg+xml</dc:format>
        <dc:type
           rdf:resource="http://purl.org/dc/dcmitype/StillImage" />
        <dc:title />
      </cc:Work>
    </rdf:RDF>
  </metadata>
  <defs
     id="defs34" />
  <sodipodi:namedview
     pagecolor="#ffffff"
     bordercolor="#666666"
     borderopacity="1"
     objecttolerance="10"
     gridtolerance="10"
     guidetolerance="10"
     inkscape:pageopacity="0"
     inkscape:pageshadow="2"
     inkscape:window-width="1920"
     inkscape:window-height="1031"
     id="namedview32"
     showgrid="false"
     inkscape:zoom="1.8996966"
     inkscape:cx="202.54731"
     inkscape:cy="331.67922"
     inkscape:window-x="3840"
     inkscape:window-y="24"
     inkscape:window-maximized="1"
     inkscape:current-layer="g4157" />
  <g
     id="g4189">
    <g
       id="g4157">
      <g
         id="g4163">
        <path
           style="fill:#2b9e73;fill-opacity:1;fill-rule:evenodd;stroke:#000000;stroke-width:0.40962586"
           inkscape:connector-curvature="0"
           id="path12"
           d="m 409.51753,239.68234 3.03418,-3.97816 3.77585,4.38259 6.20338,2.56221 4.45017,-3.641 4.58494,0.33713 4.71971,-5.6639 3.30388,-2.56221 3.70847,2.0902 0.13485,8.6304 4.04554,-0.47197 1.61823,4.51777 1.68569,7.75421 -1.61823,9.03512 8.42847,7.28192 -10.4512,7.88899 -10.72073,-15.30567 -4.45017,3.30387 -4.11305,-1.95534 3.43872,-13.82242 -5.93343,5.52913 -7.68663,-1.21368 0.74171,-6.40532 -3.37134,-3.77589 z m 108.42797,48.76596 0.40962,11.0599 2.45776,4.09626 -2.04813,9.42139 -7.37327,-4.91551 -8.19251,-10.65027 -6.14439,-3.27701 -5.73476,2.86739 -5.73476,-7.7829 2.45775,-4.50588 -6.96364,-6.14439 6.14439,-4.50588 8.60214,-9.4214 4.91551,2.86738 12.28878,13.10803 4.91551,7.78289 z m -40.14334,-61.03425 4.09626,4.91551 6.14439,-1.63851 -1.22888,4.91552 2.04813,7.37326 4.50589,1.6385 2.45775,4.50589 -13.51765,9.83102 -10.65027,11.46952 -6.55402,-3.277 -7.37326,2.86738 -8.60215,-7.37327 1.63851,-9.01177 -1.63851,-7.78289 6.55402,-4.91551 0.40962,-6.14439 4.50589,-2.04813 6.96364,-6.96364 6.55401,-2.04813 3.68663,3.68664 z m -10.24064,-1.63851 -6.96364,6.96364 -4.50589,2.04813 -0.40962,6.14439 -6.55402,4.91551 -1.6385,-4.50588 -4.09626,0.40962 0,-8.60214 -3.68663,-2.04813 -3.27701,2.45776 -4.91551,-3.27701 3.27701,-2.86738 9.01177,-12.6984 6.14438,-1.22888 3.68664,-2.04813 3.68663,4.09626 3.68663,0.81925 6.55402,9.42139 z m 20.07166,104.86423 -8.60214,5.32513 4.09626,4.91551 0.40963,6.55402 13.92728,5.32513 4.91551,8.19252 3.68663,6.14439 -4.50589,2.04813 -8.60214,5.32513 -0.40963,3.68664 -6.55401,4.50588 -7.78289,-1.22888 0,4.91552 -4.91551,2.45775 -5.32514,-0.40963 -7.78289,-1.22887 -0.40962,-7.37327 -6.14439,-12.28877 0.40962,-12.69841 -6.96364,-10.65027 0.81926,-10.24065 2.04812,-7.78289 5.73477,0.40963 4.91551,0.81925 3.68663,2.45776 0.81925,4.09625 4.09626,1.22888 4.09626,-5.73476 0,-8.60214 11.46952,-3.68664 -1.6385,6.96364 4.50588,6.55402 z m 8.19252,-65.94977 -8.60214,9.4214 -6.14439,4.50588 -5.32514,6.96364 5.32514,12.6984 -0.81925,5.73477 -6.14439,0 -5.32514,-0.81926 -12.6984,0 2.86738,-6.55401 1.63851,-4.50588 -1.22888,-5.73477 1.6385,-3.277 -3.277,-7.37327 0,-5.73476 7.37326,-2.86738 6.55402,3.277 10.65027,-11.46952 13.51765,-9.83102 1.22888,3.68663 -2.45776,7.37327 1.22888,4.50588 z m -10.24064,24.57755 5.73476,7.7829 5.73476,-2.86739 6.14439,3.27701 8.19251,10.65027 7.37327,4.91551 4.09626,2.45776 6.55401,11.46952 -1.6385,5.32514 2.04813,4.50588 10.65027,1.63851 3.27701,2.86738 -9.4214,4.91551 -1.6385,11.0599 -4.09626,4.91551 -10.65027,6.96364 -4.09626,-2.86738 -7.78289,0.81925 -3.68663,-6.14439 -4.91551,-8.19252 -13.92728,-5.32513 -0.40963,-6.55402 -4.09626,-4.91551 8.60214,-5.32513 -4.50588,-6.55402 1.6385,-6.96364 -11.46952,3.68664 0,8.60214 -4.09626,5.73476 -4.09626,-1.22888 -0.81925,-4.09625 -3.68663,-2.45776 -4.91551,-0.81925 -5.73477,-0.40963 6.96364,-18.84279 -4.09625,-0.40962 3.277,-3.68664 12.6984,0 5.32514,0.81926 6.14439,0 0.81925,-5.73477 -5.32514,-12.6984 5.32514,-6.96364 6.96364,6.14439 -2.45775,4.50588 z m -73.73266,-26.62568 -11.0599,5.73476 -5.32514,-2.45775 0.40963,-4.09626 -2.04813,-7.37326 -3.68663,-3.27701 5.32513,-1.22888 9.83102,-5.32514 4.09626,-4.91551 5.73477,4.50589 3.277,3.68663 -0.81925,6.55402 -5.73476,8.19251 z m 31.95082,-47.92622 -9.01177,12.6984 -3.27701,2.86738 -5.32514,-1.6385 -6.96364,4.09625 -8.60214,-15.97541 6.14439,-0.81925 4.50588,-4.09626 2.86738,2.86739 3.68664,0 8.19251,-6.14439 7.7829,6.14439 z m -7.7829,-6.14439 -8.19251,6.14439 -3.68664,0 -2.86738,-2.86739 -4.50588,4.09626 -6.14439,0.81925 -5.32514,1.63851 -6.14438,-4.91551 0.81925,-7.78289 4.09626,-2.45776 4.50588,-0.81925 1.22888,-4.09626 10.24065,-0.81925 4.91551,-6.14439 6.14438,0.81925 1.63851,6.14439 6.55401,4.91551 -2.86738,2.04813 -0.40963,3.27701 z m -51.20323,19.25241 1.6385,2.86738 5.32514,-1.22887 3.27701,2.04813 4.50588,-2.04813 8.60215,4.91551 6.55401,-2.86738 -2.04813,4.09626 -7.37327,9.01176 -9.83102,5.32514 -5.32513,1.22888 -6.55402,0.81925 -2.45775,-6.55401 -3.68663,-0.81926 -4.50589,-2.45775 -1.6385,-6.14439 1.6385,-3.68663 1.22888,-4.50589 6.55401,-1.22887 4.09626,1.22887 z m 76.19041,55.2995 -1.6385,3.277 1.22888,5.73477 -1.63851,4.50588 -2.86738,6.55401 -3.277,3.68664 4.09625,0.40962 -6.96364,18.84279 -2.04812,7.78289 -4.09626,-1.6385 -6.14439,-6.14439 -6.55402,-10.24064 -6.55401,-1.22888 1.6385,-7.37327 -11.05989,-18.02354 5.73476,-6.55401 9.42139,0.40963 2.86738,2.04813 6.96364,-4.50589 6.96364,-2.86738 10.65028,-7.78289 0,5.73476 3.277,7.37327 z m -29.90269,-32.77007 -3.277,13.51765 4.09626,2.04813 4.50588,-3.27701 10.65027,15.15616 -6.96364,2.86738 -6.96364,4.50589 -2.86738,-2.04813 -9.42139,-0.40963 -5.73476,6.55401 -10.65028,-8.19251 -13.92728,13.51765 -3.68663,2.04813 -2.86738,4.09626 -9.01177,-7.37327 15.15616,-11.87915 11.0599,-2.45775 2.86738,-3.68664 -3.68664,-2.45775 0.40963,-4.50589 11.0599,-5.73476 5.73476,-8.19251 7.78289,1.22887 5.73476,-5.32513 z m 28.67382,172.86211 -8.19252,0.81926 -1.22888,-4.50589 -6.55401,-3.27701 0,-6.14438 -6.96364,-0.40963 4.09626,-4.50588 3.68663,-10.65028 -8.19252,-6.14439 -4.09626,-6.96364 -8.19252,-5.32513 3.27701,-6.96364 -9.42139,-2.86738 -6.55402,-12.6984 5.32514,-13.10803 2.04813,-12.28878 0,-6.14439 5.73476,-7.37326 6.55401,1.22888 6.55402,10.24064 6.14439,6.14439 4.09626,1.6385 -0.81926,10.24065 6.96364,10.65027 -0.40962,12.69841 6.14439,12.28877 0.40962,7.37327 7.78289,1.22887 5.32514,0.40963 3.68663,4.50588 2.04813,8.60215 -6.55401,4.91551 3.277,4.09626 -14.3369,8.60214 -1.6385,3.68663 z m -44.64922,-133.94766 11.05989,18.02354 -1.6385,7.37327 -5.73476,7.37326 -3.27701,-2.04813 -1.6385,5.32514 -10.24065,-7.78289 2.86738,-2.04813 -5.73476,-6.14439 1.6385,-3.27701 -4.09626,0 -1.22887,3.27701 -7.78289,1.63851 -2.45776,-6.14439 -2.86738,-4.09626 2.86738,-4.09626 3.68663,-2.04813 13.92728,-13.51765 10.65028,8.19251 z m -14.74654,73.73266 2.04813,5.32514 -7.37326,2.04813 0,7.78289 7.78289,-3.27701 3.68663,2.45776 3.27701,-2.04813 -2.86738,20.07166 -8.19252,2.04813 0,5.32514 5.73476,2.45776 3.27701,-1.63851 4.50588,6.55402 4.09626,0 4.09626,-4.91551 5.32514,0 -0.81925,4.91551 3.68663,9.42139 -6.55401,-0.40963 -5.73477,2.04813 -12.6984,19.66205 -3.68663,0.40962 -7.78289,4.50589 -3.27701,-1.63851 0.81925,4.09626 -4.50588,6.55402 -7.37327,-3.27701 -7.37326,0 -6.55402,-3.68663 -6.96364,-1.63851 -7.37326,-4.91551 1.22887,-17.61391 3.27701,-5.32514 -2.04813,-6.14439 2.04813,-6.14438 -2.45775,-6.14439 5.73476,-1.22888 6.14439,-6.96364 1.6385,-9.83102 -4.09626,-4.09626 -0.40963,-4.50588 9.01177,0.40962 4.91551,-1.6385 5.32514,-8.60214 4.50589,1.6385 8.60214,-12.6984 3.68663,10.65027 3.68663,0 z m -25.80643,9.01177 -4.91551,1.6385 -9.01177,-0.40962 0.40963,4.50588 4.09626,4.09626 -1.6385,9.83102 -6.14439,6.96364 -5.73476,1.22888 2.45775,6.14439 -2.04813,6.14438 2.04813,6.14439 -3.27701,5.32514 -1.22887,17.61391 -4.09626,-4.09626 -13.10803,14.33691 -8.19252,-1.22888 -3.277,-2.86738 -0.40963,-9.01177 -2.45776,-5.32514 -6.14438,-10.24064 5.73476,-9.01177 15.56578,-17.61391 -2.86738,-3.68664 3.68663,-10.24064 13.10803,-13.10803 1.6385,-4.50589 5.32514,-0.81925 -2.04813,-3.277 4.50589,-12.69841 3.68663,7.37327 -0.40963,6.14439 -0.81925,6.14439 9.01177,0.81925 6.55401,3.68663 z m -108.95228,23.86071 2.55311,2.43391 3.20549,-2.43391 3.22932,6.91612 5.03472,4.52964 2.45775,5.32514 0.81925,13.10803 3.27701,5.32513 -0.40963,4.09626 -3.68663,2.45776 0,11.46952 4.50589,3.27701 0,4.50588 -7.37327,2.86738 -8.19252,-4.09625 -8.19251,4.50588 -4.50589,0 -2.04813,8.19252 -5.32513,-2.45776 -3.27701,4.91551 -9.83102,-6.96364 -8.19252,-2.04813 -1.6385,3.68664 -8.60215,4.50588 -2.04813,5.73476 -6.14438,1.63851 -2.86739,-6.96364 -9.83102,3.68663 -4.91551,-6.14439 0.40963,-5.73476 2.86738,-4.50589 -5.73476,-7.37326 -2.86738,-7.37327 13.10802,0 6.14439,-7.37326 1.63851,-10.65027 2.86738,-4.09626 6.55401,0.81925 11.46953,-9.01177 4.50588,-0.81925 2.86738,-8.19252 6.55402,-2.86738 3.68663,-5.73476 16.67546,-3.61512 z m 98.3102,51.98152 6.55402,3.68663 7.37326,0 7.37327,3.27701 -4.09626,5.32514 -12.28878,7.37326 -7.37326,11.0599 0.40962,3.68663 -7.78289,1.63851 8.19252,7.37326 5.32514,1.63851 -6.96364,1.6385 -2.45776,10.24065 1.63851,4.09625 -6.55402,2.45776 -7.37326,-1.22888 -6.55402,13.51766 -0.81925,6.55401 -8.19252,13.51765 -10.65027,3.68664 -5.73476,6.14438 -11.46953,6.14439 -6.14438,6.55402 -8.60215,2.45775 -4.91551,-1.6385 -3.277,4.09626 1.22887,6.14438 -4.09626,2.45776 -1.6385,5.32514 -4.91551,2.04813 -2.86738,-18.02354 -4.50589,-4.91551 -5.73476,0.81925 -1.22888,-3.68663 -2.45775,-4.09626 -0.81925,-13.51766 2.45775,-15.15615 4.09626,-6.14439 -0.81925,-3.68663 10.65027,-10.24065 -0.81925,-9.4214 -11.87915,1.22888 -9.42139,-0.81925 5.73476,-14.74653 7.78289,-3.68663 -0.40963,-5.73477 -3.68663,-6.96364 2.04813,-8.19251 4.50588,0 8.19252,-4.50589 8.19252,4.09626 7.37326,-2.86738 5.32514,0.40962 6.14439,-5.73476 6.96364,3.68664 4.91551,0.81925 6.14439,-4.09626 5.73476,2.04813 2.45775,-3.68664 8.19252,1.22888 13.10803,-14.3369 4.09626,4.09626 7.37326,4.91551 6.96364,1.6385 z m 31.533,-181.91485 5.32514,2.45776 -0.40963,4.50588 3.68664,2.45776 -2.86738,3.68663 -11.0599,2.45775 -15.15616,11.87915 -14.74653,-13.51765 4.91551,-3.27701 1.6385,-4.09626 3.27701,-1.22887 1.6385,-4.91551 11.0599,0.81925 7.37327,-3.27701 5.32513,2.04813 z m -28.67381,-0.81925 -2.86738,4.09626 2.86738,3.277 -1.6385,4.09626 -15.56578,10.65028 -3.68664,-2.04813 -5.32513,6.96364 -8.60215,-17.61392 11.46953,-6.55401 9.42139,-4.91551 1.63851,4.91551 6.14438,-5.32514 3.68664,-1.6385 2.45775,4.09626 z m -6.55401,14.74653 14.74653,13.51765 9.01177,7.37327 2.86738,4.09626 2.45776,6.14439 -2.86739,3.68663 -11.87915,2.45775 -6.55401,4.50589 -3.68663,2.86738 -5.73476,5.73476 -4.91551,2.04813 -6.14439,-5.73476 -10.24065,-10.24065 3.27701,-4.50588 -6.55402,-5.32514 7.78289,-6.96364 2.86739,-6.14439 -4.09626,-1.22887 5.32513,-6.96364 3.68664,2.04813 10.65027,-7.37327 z m 11.0599,72.50378 -3.27701,15.97541 -9.01177,-0.81925 0.81925,-6.14439 0.40963,-6.14439 -3.68663,-7.37327 -0.40963,-7.37326 -1.6385,-3.68663 -0.81925,-4.50589 4.91551,-2.04813 5.73476,-5.73476 6.14439,4.91551 8.60214,11.0599 -7.78289,11.87915 z m -23.7583,-25.80643 6.14439,5.73476 -4.50589,7.78289 -6.96364,1.22888 -13.51765,9.01177 -4.50589,-0.40963 -2.86738,-2.45775 -4.09626,1.6385 -3.68663,-6.55401 -3.68663,-13.10803 10.24064,-5.73476 3.27701,2.86738 9.4214,-8.19252 4.50588,-2.04813 10.24065,10.24065 z m -5.73477,-27.03531 -7.78289,6.96364 6.55402,5.32514 -3.27701,4.50588 -4.50588,2.04813 -9.4214,8.19252 -3.27701,-2.86738 -10.24064,5.73476 -9.01177,5.32514 -3.27701,-6.14439 7.37327,-8.60214 -5.73477,-1.63851 -3.277,-4.09626 4.50588,-5.73476 -2.45775,-2.86738 -4.09626,-3.27701 23.34867,-2.86738 2.45776,3.68663 4.50588,-5.32513 12.28878,0 4.09626,-5.73476 4.09626,1.22887 -2.86739,6.14439 z m -9.42139,-37.68558 4.09626,4.09626 4.09626,-2.45775 2.86738,4.50588 -11.46953,6.55401 8.60215,17.61392 -4.09626,5.73476 -12.28878,0 -4.50588,5.32513 -2.45776,-3.68663 -13.92728,1.63851 -1.6385,-5.73477 5.73476,-4.50588 -3.27701,-2.45776 -6.00429,-3.277 10.91981,-3.27701 2.45775,-2.86738 -2.04813,-6.55402 1.6385,-3.277 0.81926,-8.60215 6.14438,-1.22887 5.73477,2.45775 z m -44.23959,79.46742 -4.91551,4.91551 -3.68664,0 -9.51684,5.71101 -8.95974,5.87772 -2.21935,-4.89176 -3.88326,-0.96262 -3.27701,7.37327 -6.14438,5.32514 -8.60215,-11.0599 -5.73476,-1.63851 4.91551,-6.14438 13.8261,-6.43113 -2.13243,-6.46963 3.78777,-0.54956 -1.12266,-3.1927 3.2433,-4.78074 11.07218,-0.69637 -1.6385,-4.09626 -3.68663,-1.6385 5.73476,-4.50589 11.87915,-5.73476 16.79466,-5.32513 4.09626,3.277 2.45775,2.86738 -4.50588,5.73477 3.27701,4.09625 5.73476,1.63851 -7.37327,8.60214 3.27701,6.14439 z m 44.23959,-155.2482 0,6.96364 5.32514,11.87915 -0.40963,4.50588 0,5.73476 1.22888,6.14439 5.73476,5.32514 -0.81925,3.277 3.68663,9.83103 -0.40962,6.55401 3.68663,5.73476 -0.40963,8.60214 2.86738,2.45776 -9.42139,4.91551 -2.86738,-4.50588 -4.09626,2.45775 -4.09626,-4.09626 -8.60214,0 -5.73477,-2.45775 -6.14438,1.22887 -5.32514,1.22888 -8.19252,-7.37326 9.4214,-11.0599 -9.01177,-2.45776 -4.50589,-7.78289 -6.14438,-2.04813 -4.91551,-3.27701 1.6385,-6.14438 -9.4214,-2.45776 -3.277,-4.91551 4.09626,-9.01177 2.45775,-3.68663 7.78289,-7.78289 0.40963,-13.92728 4.09626,1.6385 6.14438,-1.22888 2.04813,6.55402 9.4214,-4.09626 0,5.32514 4.91551,2.45775 6.55401,-2.86738 -0.40962,-5.73476 6.55401,-5.32514 6.14439,9.4214 z m -29.42711,178.31423 3.68663,-2.12329 1.42632,-0.97102 1.43705,0.0739 0.49196,-1.59263 2.20948,-0.0603 0.46955,-0.97078 1.76983,0.36368 0.89737,-0.65429 -1.47199,3.19238 -1.56068,3.02713 -3.68663,5.32514 1.22888,7.37326 -7.78289,4.09626 0.40962,7.78289 -11.87915,11.87914 -2.04813,4.09626 -6.55401,7.37326 -2.45776,-5.32514 -4.91551,-4.50588 -3.277,-6.96364 -3.27701,2.45776 -2.45776,-2.45776 -1.22887,-4.50588 4.50588,-5.73475 8.19252,-11.0599 0.68493,-3.76725 5.88797,-2.15692 2.00647,0.74937 4.55831,-1.63449 1.68418,0 3.58054,-1.10132 1.73255,-2.16766 4.14869,0.11011 z m 10.58432,-21.93178 3.68663,6.55402 4.09626,-1.6385 2.86738,2.45775 -2.45775,6.14439 -6.14439,2.04813 -1.36991,1.11877 -1.3981,-0.30082 -0.67821,0.88913 -1.96621,0.0913 -0.54394,1.5848 -1.48543,-0.23096 -1.476,1.14024 -3.69335,2.03338 -2.07636,0.20546 -3.86662,-0.0242 -1.65595,2.09512 -3.56309,1.02742 -1.59955,0.0215 -4.28018,1.6922 -2.26433,-0.77628 -5.91991,2.09913 0.97102,-5.29278 -4.50589,-7.78289 -4.09626,-5.73476 9.4214,-5.73476 3.68663,0 4.91551,-4.91552 12.6984,-6.55401 9.01177,-5.32514 z m 110.59898,33.68354 8.19252,5.32514 4.09626,6.96364 8.19252,6.14438 -3.68663,10.65028 -4.09626,4.50588 6.96364,0.40963 0,6.14439 -3.68664,1.6385 -5.73476,-2.04813 -5.73476,3.68663 -3.68663,-9.42139 0.81925,-4.91551 -5.32514,0 -4.09626,4.91551 -4.09626,0 -4.50588,-6.55402 -3.27701,1.63851 -5.73476,-2.45776 0,-5.32513 8.19252,-2.04813 1.53241,-12.06185 4.35145,-2.91035 4.51408,-1.12278 1.75263,-2.2536 c 2.87872,-0.23824 5.52134,-1.13905 5.05396,-0.90388 z m -20.48129,-58.5765 10.24065,7.78289 1.6385,-5.32513 3.27701,2.04813 0,6.14438 -2.04813,12.28878 -5.32514,13.10803 6.55402,12.6984 9.42139,2.86738 -3.27701,6.96364 c -2.51231,0.48115 -3.98172,0.41167 -5.33824,1.25567 -0.53485,0.3328 -0.56901,0.96868 -1.37384,1.59262 -1.02767,0.79668 -2.02392,0.37308 -3.25895,0.97573 -3.4139,1.66579 -4.18965,2.81028 -5.10312,2.68567 -0.89441,-0.122 0.95697,-5.43409 0.35576,-7.32902 l -2.8956,2.04813 -3.68663,-2.45776 -7.78289,3.27701 0,-7.78289 7.37326,-2.04813 -2.04813,-5.32514 -3.68663,0 -3.68663,-10.65027 -8.60215,12.6984 -4.50588,-1.6385 -5.32514,8.60214 -6.55401,-3.68663 3.27701,-15.97541 7.78289,-11.87915 -8.60215,-11.0599 -6.14438,-4.91551 3.68663,-2.86738 6.55401,-4.50589 11.87915,-2.45775 2.86738,-3.68664 7.7829,-1.6385 1.22887,-3.27701 4.09626,0 -1.6385,3.27701 5.73476,6.14439 z m -69.6364,64.72089 -3.68663,10.24064 2.86738,3.68664 -15.56578,17.61391 -5.73476,9.01177 6.14438,10.24065 2.45776,5.32513 0.40963,9.01177 3.277,2.86738 -2.45775,3.68664 -5.73477,-2.04813 -6.14438,4.09625 -4.91551,-0.81925 -6.96364,-3.68663 -6.14439,5.73476 -5.32514,-0.40962 0,-4.50589 -4.50588,-3.27701 0,-11.46952 3.68663,-2.45775 0.40963,-4.09626 -3.27701,-5.32514 -0.81925,-13.10803 6.55401,-7.37326 2.04813,-4.09626 11.87915,-11.87915 -0.40962,-7.78289 7.78289,-4.09626 c 4.61034,3.12684 8.40593,4.9876 12.01883,4.9663 8.06963,-0.0451 4.22324,0.37686 12.1495,-0.0491 z m 22.52943,-34.40857 -4.50589,12.6984 2.04813,3.277 -5.32514,0.81926 -1.6385,4.50588 -13.10803,13.10803 c -3.79555,-0.0185 -5.94695,0.24498 -9.53076,0.0367 -1.54056,-0.0895 -3.78556,0.009 -5.81505,-0.49323 -2.91244,-0.72094 -6.34101,-2.78545 -8.82334,-4.46082 l -1.22888,-7.37327 3.68663,-5.32514 3.27701,-6.55401 6.14439,-2.04813 2.45775,-6.14439 4.50589,0.40963 13.51765,-9.01177 6.96364,-1.22888 4.50589,-7.78289 0.81925,4.50588 1.6385,3.68664 z" />
        <path
           style="fill:#5a7cd2;fill-opacity:1;fill-rule:evenodd;stroke:#000000;stroke-width:0.40962586"
           inkscape:connector-curvature="0"
           id="path18"
           d="m 438.84674,72.956421 -1.23965,-3.909551 5.33989,-2.288539 2.95598,-5.339883 6.86574,0.476764 2.09781,-5.625802 1.04893,9.153909 4.95852,5.530769 2.57463,-4.195798 -0.85821,-6.865739 5.6258,-2.383859 1.33497,3.528149 1.62101,3.337426 6.57941,2.860664 5.72125,-0.858208 1.33497,3.814191 -2.09782,8.391186 -5.53077,2.288538 -2.38385,6.86574 -8.48663,-0.953568 -1.81174,-4.195798 -14.78012,6.674853 -8.58207,-1.23961 1.71641,-6.483967 4.29084,-0.762847 -4.48172,-7.056215 z m -89.92107,90.302019 3.81419,-2.57458 3.81419,-4.29083 2.00246,-5.6258 -4.10036,-12.68243 6.57941,-0.47676 10.29841,-17.16373 19.6432,-2.38386 13.44515,13.54059 -2.00246,6.48397 -3.33743,1.23961 -2.86066,5.72124 2.86066,7.91438 3.71883,0.38142 -1.14424,8.00983 -7.34214,13.15882 -8.39118,5.149 -8.96344,1.81173 -6.29349,-6.29349 -13.25426,-2.28854 -3.33743,-4.10035 2.47922,-5.33989 z m 215.71718,-105.429503 3.68663,2.867382 3.68663,-2.04813 3.27701,2.867381 -4.50588,9.011769 -0.81926,3.277007 -10.65027,-2.048129 0.81925,-4.096259 0.40963,-4.505884 4.09626,-5.325137 z m 9.01177,69.636403 1.22887,6.55401 -3.68663,0.81925 -1.22888,-4.50588 3.68664,-2.86738 z m 0,0 -6.14439,-3.68664 6.55401,-5.32513 -0.40962,9.01177 z m 0.40962,-9.01177 -0.40962,-5.73477 -2.45776,-4.50588 6.14439,-5.73476 -6.14439,-3.686636 9.4214,-6.963639 4.50588,-4.915511 4.91551,12.288776 5.32514,6.14439 -7.37327,5.73476 -4.09626,0 -5.32513,5.73476 -4.50589,1.63851 z m 3.27701,-15.97541 -6.14439,5.73476 2.45776,4.50588 0.40962,5.73477 -6.55401,5.32513 -5.32514,0.81925 -9.42139,-1.6385 -4.91551,-1.22888 3.277,-18.84279 7.37327,0.81925 12.6984,-4.915506 6.14439,3.686636 z m 2.04813,-28.673814 2.04813,9.831021 3.68663,3.277007 -4.50588,4.915511 -9.4214,6.963639 -12.6984,4.915506 -7.37327,-0.81925 -1.6385,-4.096256 -2.45775,-2.867381 0.81925,-4.096258 2.86738,-3.277007 4.50588,-0.819252 -9.01177,-9.831021 -0.81925,-8.192517 -3.277,-5.734763 6.96364,0.409626 10.24064,7.373266 10.65027,2.048129 0.81926,-3.277007 4.50588,-9.011769 4.91551,4.505885 -0.81925,7.782891 z m -36.4567,48.335854 2.86738,2.45775 2.04813,-2.86738 4.91551,1.22888 9.42139,1.6385 5.32514,-0.81925 6.14439,3.68664 -3.68664,2.86738 1.22888,4.50588 3.68663,-0.81925 0.40963,4.91551 -8.60214,1.6385 0.40962,7.37327 -3.68663,1.22888 -1.22888,6.14438 -7.37326,-1.6385 -3.27701,1.6385 -5.32514,-6.55401 -0.40962,-7.37327 -8.19252,0 -2.04813,-3.277 -1.22888,-3.27701 5.32514,-1.6385 -2.45776,-5.73476 -6.14438,-4.91552 7.78289,-2.86738 4.09626,2.45776 z m 4.91551,-30.312315 -0.81925,4.096258 2.45775,2.867381 1.6385,4.096256 -3.277,18.84279 -2.04813,2.86738 -2.86738,-2.45775 -4.09626,-2.45776 -7.78289,2.86738 -6.96364,0.40963 0.40962,-5.32514 -9.01177,-0.40962 0,-6.14439 3.27701,-6.96364 -0.81925,-6.144387 4.09626,-2.867381 5.32513,-1.638504 13.92728,1.638504 6.55402,-3.277007 z m 3.68663,63.492005 -1.6385,10.65028 -6.55402,0.40962 -3.68663,2.86738 3.68663,8.60215 -6.96364,2.04813 -13.51765,3.277 4.50588,-4.91551 -3.68663,-16.79466 8.19252,0.81925 -0.81925,-6.55401 15.15615,-6.96364 5.32514,6.55401 z m -15.15616,24.57756 -4.91551,9.83102 -3.277,1.6385 -4.91551,7.37327 0.40962,7.37326 -4.91551,1.63851 -6.96364,6.55401 6.14439,4.91551 -1.22888,3.27701 -4.50588,0.81925 -4.50589,-3.68663 -11.87915,0.81925 -4.09626,-3.68664 0.81925,-4.50588 0,-4.50588 -8.19251,0.81925 -3.68664,-6.96364 -4.09625,0.81925 7.37326,-6.14439 4.09626,-4.91551 -0.40963,-5.73476 2.86739,-2.45776 3.68663,2.04813 5.73476,-2.45775 3.27701,4.91551 19.66204,-4.50589 13.51765,-3.277 z m -24.57755,-21.71017 6.14439,4.50588 5.73476,-1.22888 3.68663,16.79466 -4.50588,4.91551 -19.66204,4.50589 -3.27701,-4.91551 -5.73476,2.45775 -3.68663,-2.04813 -0.40963,-5.73476 -5.32514,-9.01177 5.73477,-1.6385 0,-6.14439 5.73476,-0.81925 3.68663,1.6385 4.09626,-2.45775 7.78289,-0.81925 z m 19.25242,-2.45776 0.81925,6.55401 -8.19252,-0.81925 -5.73476,1.22888 -6.14439,-4.50588 -7.78289,0.81925 -2.04813,-14.74653 5.32514,-1.63851 10.24064,-1.6385 9.01177,-4.09626 7.78289,-2.04813 1.22888,3.27701 2.04813,3.277 8.19252,0 0.40962,7.37327 -15.15615,6.96364 z m -1.63851,-131.080278 2.04813,3.277007 9.01177,4.505884 9.83102,0.409626 4.91551,-0.819251 3.27701,6.554014 -2.04813,3.686632 2.86738,3.686633 -1.22888,4.505885 2.04813,4.91551 4.50589,2.457755 -4.09626,5.325137 -0.40963,4.505884 -0.81925,4.096259 -10.24064,-7.373266 -6.96364,-0.409626 3.277,5.734763 0.81925,8.192517 9.01177,9.831021 -4.50588,0.819252 -2.86738,3.277007 -6.55402,3.277007 -13.92728,-1.638504 -5.32513,1.638504 -5.73476,-2.867381 -7.37327,-2.04813 -5.73476,-8.602143 -6.96364,-6.144388 -5.73476,-3.686633 -5.73477,-1.638503 -1.22887,-3.686633 -5.73477,0.819251 -6.55401,-2.867381 -1.6385,-3.277007 3.277,-5.325136 10.65028,-4.91551 4.50588,-2.867381 5.32514,-0.409626 18.02353,-13.108028 4.91552,-1.228878 -6.96364,-2.457755 -3.68664,1.228878 -0.40962,-5.325137 3.68663,0.409626 5.73476,-4.096259 7.37327,-2.048129 7.37326,3.686633 z m -52.02248,-6.554014 2.45775,4.505885 12.28878,-0.409626 13.10803,4.505884 0.40962,5.325137 3.68664,-1.228878 6.96364,2.457755 -4.91552,1.228878 -18.02353,13.108028 -5.32514,0.409626 -4.50588,2.867381 -10.65028,4.91551 -3.277,5.325136 -1.22888,-3.686632 -5.73476,2.457755 0.81925,6.96364 -2.45776,4.096258 -4.91551,-5.325136 -1.22888,-9.421395 -18.43316,-8.192517 3.68663,-6.96364 4.50589,-2.867381 6.14439,-4.505885 6.14438,-12.698402 4.09626,-0.819252 5.73477,-8.192517 5.73476,4.096259 4.91551,2.048129 z m 41.37221,86.021432 -3.27701,6.96364 -3.68663,-1.22888 -6.14439,3.68664 -10.24064,0 -2.86739,-3.27701 -6.14438,-1.6385 -3.27701,4.91551 -3.68663,-1.22888 -2.04813,-4.91551 -2.86738,2.45775 -9.01177,-4.50588 2.04813,-4.09626 -0.81925,-5.734763 9.01176,-4.096258 -0.81925,-3.686633 2.45776,-6.96364 5.32513,-2.048129 2.04813,-8.602143 5.73477,1.638503 5.73476,3.686633 6.96364,6.144388 5.73476,8.602143 7.37327,2.04813 5.73476,2.867381 -4.09626,2.867381 0.81925,6.144387 z m -43.82997,-16.385034 0.81925,3.686633 -9.01176,4.096258 0.81925,5.734763 -2.04813,4.09626 9.01177,4.50588 2.86738,-2.45775 2.04813,4.91551 3.68663,1.22888 4.91551,-0.40963 5.32514,5.73476 3.277,1.22888 3.27701,3.68663 -2.86738,3.68664 -2.45776,2.86738 4.91551,3.277 -7.37326,1.63851 -9.01177,4.91551 -5.73476,0 -6.14439,-0.81925 -1.22888,-4.50589 -5.73476,-2.45775 -6.14439,-8.19252 0.81925,-5.32514 -8.19251,2.04813 -3.68664,-4.91551 -5.32513,0 -1.63851,-4.09626 1.22888,-3.68663 -2.04813,-2.86738 -4.09626,-6.14439 7.37327,-4.505884 -1.22888,-6.554014 8.19252,1.228877 15.15616,-6.554013 1.6385,4.096258 8.60214,0.819252 z m -34.8182,24.167924 1.63851,4.09626 5.32513,0 3.68664,4.91551 8.19251,-2.04813 -0.81925,5.32514 6.14439,8.19252 5.73476,2.45775 1.22888,4.50589 6.14439,0.81925 -0.81925,7.78289 -6.55402,-1.6385 -2.45775,3.277 -7.37327,-4.09626 -12.6984,1.63851 -6.55401,-0.40963 -6.96364,-6.96364 -2.86739,-11.0599 -1.22887,-8.60214 -3.27701,-8.60214 3.68663,0.81925 3.68664,-1.22888 5.32513,-5.73476 2.04813,2.86738 -1.22888,3.68663 z m 52.43211,-1.6385 2.86739,3.27701 10.24064,0 6.14439,-3.68664 3.68663,1.22888 0,6.14439 9.01177,0.40962 -0.40962,5.32514 6.96364,-0.40963 6.14438,4.91552 2.45776,5.73476 -5.32514,1.6385 -7.78289,2.04813 -9.01177,4.09626 -10.24064,1.6385 -5.32514,1.63851 2.04813,14.74653 -4.09626,2.45775 -3.68663,-1.6385 -11.87915,-9.01177 -6.55402,3.27701 -4.09626,0.81925 -3.277,-3.27701 -4.09626,1.63851 1.22888,-3.68664 2.45775,-3.277 6.55402,1.6385 0.81925,-7.78289 5.73476,0 9.01177,-4.91551 7.37326,-1.63851 -4.91551,-3.277 2.45776,-2.86738 2.86738,-3.68664 -3.27701,-3.68663 -3.277,-1.22888 -5.32514,-5.73476 -4.91551,0.40963 3.27701,-4.91551 6.14438,1.6385 z m -51.61285,36.4567 6.55401,0.40963 12.6984,-1.63851 7.37327,4.09626 -5.32514,5.32514 -5.32514,1.22888 -4.50588,6.55401 -5.32514,1.22888 -1.22887,-3.68664 -5.32514,-3.68663 -4.91551,4.91551 -3.27701,-8.60214 -6.55401,-2.86738 1.22888,-5.73476 6.96364,-4.50589 6.96364,6.96364 z m 26.62568,2.86738 -1.22888,3.68664 4.09626,-1.63851 3.277,3.27701 4.09626,-0.81925 6.55402,-3.27701 11.87915,9.01177 -5.73476,0.81925 0,6.14439 -5.73477,1.6385 -4.91551,-2.45775 -17.20428,7.78289 -6.96364,2.45775 -4.50589,1.22888 -4.91551,-5.73476 -0.40962,-4.50589 1.22887,-3.277 5.32514,-1.22888 4.50588,-6.55401 5.32514,-1.22888 5.32514,-5.32514 z m 16.38503,46.69735 -7.37326,6.14439 4.09625,-0.81925 3.68664,6.96364 8.19251,-0.81925 0,4.50588 -0.81925,4.50588 -9.83102,4.09626 -0.40962,4.09626 -3.68664,2.45776 -3.68663,-3.68664 -6.55401,2.04813 -6.55402,-9.42139 -3.68663,-0.81925 -3.68663,-4.09626 -3.68664,2.04813 -6.14438,1.22888 -7.7829,-6.14439 0.40963,-3.27701 19.25242,-14.3369 -5.73477,-4.50589 5.73477,-10.24065 6.96364,-2.45775 17.20428,-7.78289 4.91551,2.45775 5.32514,9.01177 0.40963,5.73476 -2.86739,2.45776 0.40963,5.73476 -4.09626,4.91551 z m -46.28772,-126.984018 1.22888,3.686633 3.68663,0.819251 4.50588,6.96364 -4.09626,0.819252 -1.6385,6.554014 -4.50588,3.686633 -9.01177,0.819251 -11.46953,-4.91551 -10.24064,5.325136 -11.87915,-9.011769 6.55401,-14.336905 12.6984,1.228877 3.68663,1.228878 6.55402,-4.505885 9.83102,-0.409626 4.09626,2.04813 z m -5.32514,83.563678 3.27701,8.60214 4.91551,-4.91551 5.32514,3.68663 1.22887,3.68664 -1.22887,3.277 0.40962,4.50589 4.91551,5.73476 4.50589,-1.22888 -5.73477,10.24065 5.73477,4.50589 -16.38504,12.28877 -6.55401,-4.91551 -1.63851,-6.14439 -6.14438,-0.81925 -3.68664,-6.14439 -0.40962,-8.19251 -12.28878,-11.46953 -6.96364,-4.09626 1.22888,-8.19251 -3.68663,-0.40963 -2.86738,-7.78289 2.86738,-5.73476 3.277,-1.22888 2.04813,-6.55402 9.01177,0.81926 4.91551,10.24064 4.50589,1.63851 4.09626,0 -1.22888,5.73476 6.55401,2.86738 z m -33.17969,60.62463 6.14438,4.91551 5.32514,-1.63851 8.60214,15.97541 6.96364,-4.09625 5.32514,1.6385 4.91551,3.27701 -4.91551,5.73476 -4.50588,-0.40963 -4.50589,3.68663 -6.14439,-2.45775 -3.68663,-4.50588 2.04813,-4.09626 -6.55401,2.86738 -8.60215,-4.91551 -4.50588,2.04813 -3.27701,-2.04813 -0.40962,-9.01177 7.78289,-6.96364 z m -18.02354,31.95082 2.45775,6.55401 6.55402,-0.81925 3.68663,3.27701 2.04813,7.37326 -0.40963,4.09626 -5.32513,-2.04813 -7.37327,3.27701 -11.0599,-0.81925 -1.6385,4.91551 -3.27701,1.22887 -2.86738,-3.277 2.86738,-4.09626 -2.45775,-4.09626 -3.68664,1.6385 -6.14438,5.32514 -1.63851,-4.91551 -2.86738,-2.45776 0.40963,-8.60214 -3.68663,-5.73476 15.9754,-2.04813 1.22888,-4.91551 -3.27701,-6.55402 9.01177,-4.09625 4.50589,-0.81926 -1.22888,4.50589 -1.6385,3.68663 1.6385,6.14439 4.50589,2.45775 3.68663,0.81926 z m 8.19252,-43.42035 6.55401,4.91551 4.09626,-1.22887 -0.81925,7.78289 -7.78289,6.96364 0.40962,9.01177 -5.32514,1.22887 -1.6385,-2.86738 -4.09626,-1.22887 -6.55401,1.22887 -4.50589,0.81926 -9.01177,4.09625 3.27701,6.55402 -1.22888,4.91551 -15.9754,2.04813 0.40962,-6.55402 -3.68663,-9.83102 0.81925,-3.277 -5.73476,-5.32514 -1.22888,-6.14439 0,-5.73476 9.83102,1.22888 6.55402,0.40962 8.60214,4.09626 2.04813,-6.96364 4.50588,-6.55401 10.65027,-2.86738 9.83103,3.277 z m 20.48129,-3.68663 -1.22888,4.09626 -4.50588,0.81925 -4.09626,2.45776 -4.09626,1.22887 -6.55401,-4.91551 -9.83103,-3.277 -10.65027,2.86738 -5.32513,-4.09626 -1.63851,-3.27701 6.14439,-7.78289 9.01177,-4.91551 9.01177,-2.04813 8.19252,-4.91551 7.37326,-13.10803 6.96364,4.09626 12.28878,11.46953 0.40962,8.19251 3.68664,6.14439 -4.91551,6.14439 -10.24065,0.81925 z m -15.56578,-114.285617 11.87915,9.011769 10.24064,-5.325136 11.46953,4.91551 9.01177,-0.819251 4.50588,-3.686633 1.22888,6.554014 -7.37327,4.505884 4.09626,6.14439 -5.32513,5.73476 -3.68664,1.22888 -3.68663,-0.81925 3.27701,8.60214 1.22887,8.60214 2.86739,11.0599 -6.96364,4.50589 -4.09626,0 -4.50589,-1.63851 -4.91551,-10.24064 -9.01177,-0.81926 -13.51765,-13.51765 -19.66204,2.45776 -11.87915,-14.74654 -6.96364,0 -12.6984,-7.782887 -2.04813,-9.831021 2.45775,-4.096259 7.37327,-3.686633 4.91551,2.04813 5.32513,0 -0.40962,6.144388 5.32513,-1.638504 2.86739,2.04813 6.14438,-0.409626 2.04813,3.277007 4.91551,0 3.68664,-4.096259 0.81925,-6.96364 4.09626,-0.409626 6.96364,3.686633 z m -29.90269,124.116637 -2.04813,6.96364 -8.60214,-4.09626 -6.55402,-0.40962 -9.83102,-1.22888 0.40963,-4.50589 -5.32514,-11.87915 0,-6.96364 2.04813,-6.96364 4.50588,-5.32513 1.22888,-4.91551 2.45776,-3.27701 6.14438,-2.04813 7.7829,0 -2.45776,5.32514 3.27701,4.09626 13.51765,2.45775 6.14439,6.14439 -9.01177,4.91551 -6.14439,7.78289 1.63851,3.27701 5.32513,4.09626 -4.50588,6.55401 z m -48.74548,-118.791501 5.73476,2.457756 6.55402,-4.096259 9.83102,0.409626 2.04813,9.831021 12.6984,7.782887 6.96364,0 11.87915,14.74654 -10.24065,17.20428 -6.55401,0.40963 4.09626,12.6984 -2.04813,5.73476 -3.68664,4.09626 -4.09626,2.86738 -6.14438,2.04813 -2.45776,3.27701 -1.22888,4.91551 -4.50588,5.32513 -2.04813,6.96364 -6.14439,-9.42139 -6.55401,5.32514 0.40962,5.73476 -6.55401,2.86738 -4.91551,-2.45776 0,-5.32513 -9.4214,4.09626 -2.04813,-6.55402 -6.14438,1.22888 -4.09626,-1.6385 1.6385,-4.50589 -2.45775,-13.51765 -4.50589,-6.55402 8.60215,-1.6385 12.28877,-8.60214 -0.40962,-6.55402 6.14438,4.09626 -5.32513,-19.25241 6.55401,-11.46953 0,-3.68663 -3.68663,-3.27701 0.81925,-5.325134 -1.6385,-3.686633 0,-9.011769 3.277,-1.638503 6.14439,-0.409626 1.22888,4.505884 z m -10.65027,-2.457755 0,9.011769 1.6385,3.686633 -0.81925,5.325134 3.68663,3.27701 0,3.68663 -6.55401,11.46953 5.32513,19.25241 -6.14438,-4.09626 0.40962,6.55402 -12.28877,8.60214 -8.60215,1.6385 0,-12.6984 -22.1198,-6.55401 -5.32513,-4.91551 1.6385,-6.96364 8.19252,-7.78289 2.45775,-7.37327 6.14439,-7.37326 7.78289,-4.915515 10.65028,-6.144388 13.92728,-3.686633 z m 0,0 2.04813,-6.144388 1.22887,4.505885 -3.277,1.638503 z" />
        <path
           style="fill:#e0e066;fill-opacity:1;fill-rule:evenodd;stroke:#000000;stroke-width:0.53577864"
           inkscape:connector-curvature="0"
           id="path24"
           d="m 311.86672,260.67507 -0.86319,8.47126 -1.49767,3.24547 1.93318,6.64213 -2.42052,2.84163 -10.91934,3.31076 -2.03715,-10.20688 -3.7057,-4.32497 -7.5172,1.52929 -1.0381,-3.22563 6.46798,-3.68343 1.11047,-3.73911 -4.84402,2.09288 2.75114,-6.9369 -4.81062,-1.12161 -4.21918,-6.47354 -4.79947,-2.19312 -0.48007,-5.36306 2.72329,-4.25816 -2.07618,-6.45127 7.61804,-3.18978 4.40691,3.21692 6.59752,2.2575 4.31463,7.59973 9.07991,2.77341 -9.08762,10.80548 7.76772,7.155 z m -69.61111,-66.08663 2.62307,5.38534 5.88211,1.13275 4.17463,10.75954 4.27487,1.11604 -0.0445,4.286 5.35193,0.59143 7.67104,-3.39183 3.16436,4.56909 9.47248,2.63592 -1.47782,5.92407 -7.71176,3.2365 2.07618,6.45127 -2.72329,4.25816 0.48007,5.36306 4.79948,2.19311 4.21918,6.47354 4.81061,1.12162 -2.75114,6.9369 -5.33522,-2.19868 -9.12445,1.5126 -3.26461,4.78833 -5.3742,1.55157 -5.34636,-1.12718 -2.09846,-4.30827 -5.36863,1.01582 -8.02511,-1.15502 -4.77163,-4.87186 -15.53117,-0.69722 2.7567,-7.47266 4.35281,-6.38445 -3.68343,-6.46797 -0.98241,-8.58313 8.54972,2.23209 2.10402,3.77252 3.19223,2.1764 10.72056,-0.42439 -0.49677,-3.75581 -12.79118,-6.56263 0.597,-5.88768 -9.54884,-9.20797 2.19868,-5.33522 -3.15882,-5.39091 -2.10959,-3.23677 -5.85984,-3.27574 0.0613,-5.89325 16.12261,-4.65471 2.09845,4.30827 z m 0.35322,69.12285 8.02511,1.15502 5.36863,-1.01582 2.09846,4.30827 5.34636,1.12718 5.3742,-1.55157 3.26461,-4.78834 9.12445,-1.51259 5.33522,2.19868 4.84402,-2.09289 -1.11047,3.73911 -6.46798,3.68343 1.0381,3.22564 7.5172,-1.5293 3.7057,4.32498 1.9698,10.26886 6.09576,3.20833 3.16212,2.47422 -5.67735,4.53008 1.61343,5.64006 -9.5496,1.17598 -17.20524,5.71507 -11.84774,5.77075 -5.40204,4.23031 -6.39002,-3.81706 -0.45223,-8.04181 -4.27486,-1.11605 -2.65091,-2.70659 -10.17367,-0.64154 -6.38445,-4.35281 -3.68344,-6.46798 -5.8654,-2.73999 8.64438,-6.87566 13.46056,-6.28979 -5.30739,-4.87743 1.72418,-11.23404 z m 16.58162,54.28889 3.92427,1.62239 1.63977,3.98148 -10.99206,0.76984 -3.26461,4.78834 1.0381,3.22563 -3.75582,0.49678 2.07618,6.45126 -14.00187,6.81998 -4.883,5.84314 -5.96006,6.36774 -9.71588,6.86452 -8.15318,11.16723 -3.14211,-6.99816 2.72886,-4.7939 -20.8998,0.31859 -0.49678,-3.75581 4.84959,-2.62864 -2.07061,-6.98702 -5.32409,-3.27018 4.34168,-5.31295 -3.11985,-9.14115 -8.52188,-4.91084 7.53391,-3.13654 16.7196,-10.54239 9.74371,-9.54327 1.6518,-4.26929 10.72056,-0.42439 7.00372,-3.67786 6.38445,4.35281 10.17368,0.64154 2.65091,2.70659 4.27486,1.11605 0.45223,8.04181 z m -0.36192,34.82373 2.09288,4.84402 9.27156,-5.76912 3.92045,5.64047 4.63712,7.85491 -1.71441,9.025 -8.3731,11.19173 -4.34725,5.8487 -16.64722,3.57764 -3.81149,5.85427 -6.45684,2.61193 -2.76784,8.54416 -4.82731,0.48563 -11.3454,8.99082 -6.42343,-0.60257 -2.72329,4.25816 -1.71304,10.16254 -5.9712,7.43925 -12.858,-0.13364 -4.83288,1.02139 -1.51816,-8.5887 -5.32966,-2.73443 -0.93229,-13.40487 -2.70102,2.11515 -2.08176,-5.91551 7.53948,-3.6723 0.6137,-7.49493 4.34168,-5.31295 11.28415,-3.09757 2.18197,-3.72797 -0.98798,-8.04739 3.24791,-3.18109 7.54504,-4.20804 8.15317,-11.16722 9.71588,-6.86452 5.96007,-6.36775 5.87654,1.6685 8.46063,10.80408 5.94893,-5.29625 3.8282,-7.46152 z m -66.1001,-84.27295 3.71127,3.78922 5.40761,-4.76606 5.34079,1.66292 3.7948,-4.24702 0.0947,-9.10774 11.22847,2.25993 15.53118,0.69722 -1.72418,11.23404 5.30738,4.87743 -13.46055,6.28979 -8.64438,6.87566 5.8654,2.74 3.68343,6.46797 -7.00372,3.67786 -10.72056,0.42439 -1.65179,4.26929 -9.74372,9.54327 -16.7196,10.54239 -7.53391,3.13654 -10.78181,6.31764 -2.72329,4.25815 6.39559,3.28132 -5.91552,2.08175 -5.36863,1.01582 -6.50695,7.43368 -3.71127,-3.78923 -1.56828,-3.76695 -4.7772,-4.33611 0.58029,-4.28043 -3.18665,-2.71215 3.32029,-10.14584 14.56546,-9.49316 -3.74468,-0.57472 -11.8366,4.69925 -3.29802,8.00283 -5.3575,-0.0557 -2.72886,4.79391 -6.4457,1.54043 -5.40761,4.76607 -4.3194,3.16995 -3.7948,4.24703 -0.0612,5.89324 -5.47443,11.19506 -5.870974,-2.20424 -3.688999,-5.93223 0.06125,-5.89324 -4.213613,-7.00929 -6.942474,-2.21539 -4.754931,-6.4791 2.862494,-17.6519 4.838451,-1.55714 7.54504,-4.20804 -0.496773,-3.75582 4.330541,-4.24145 2.187544,-4.26373 9.013084,9.2024 3.76695,-1.56827 3.28689,-6.93134 10.80408,-8.46063 0.6137,-7.49493 3.78923,-3.71127 4.3027,-1.56271 5.41317,-5.30181 5.40761,-4.76607 4.22475,5.93779 4.25259,3.25904 2.63977,3.77809 8.55529,1.69634 6.92577,3.82263 9.6435,0.10023 -0.99355,-7.51163 3.37597,-15.50334 4.37509,-8.52745 4.23032,5.40204 -0.10023,9.6435 z m -55.7947,58.35895 -1.10491,3.20337 2.09846,4.30827 3.18665,2.71215 -0.58029,4.28043 4.7772,4.33611 1.56828,3.76695 3.71127,3.78923 6.50695,-7.43368 5.36863,-1.01582 5.91552,-2.08175 -6.39559,-3.28132 2.72329,-4.25815 10.78181,-6.31764 8.52188,4.91084 3.11985,9.14115 -4.34168,5.31295 5.32409,3.27018 2.07061,6.98702 -4.84959,2.62864 0.49678,3.75581 20.8998,-0.31859 -2.72886,4.7939 3.14212,6.99816 -7.54504,4.20804 -3.24791,3.18109 0.98798,8.04738 -2.18198,3.72798 -11.28415,3.09757 -4.34168,5.31295 -0.6137,7.49493 -7.53947,3.67229 -7.48379,-1.6852 -15.09008,8.41609 -3.13098,-8.06965 -5.30182,-5.41318 -4.28599,-0.0445 -5.82086,-7.026 -5.96564,6.9035 -4.27486,-1.11604 -2.71215,3.18665 -4.83289,1.02139 -0.039,3.75025 -9.19684,8.47734 -4.29713,1.02695 -7.980564,-5.44102 2.717724,-3.7224 -0.452229,-8.04182 4.302702,-1.5627 -3.136546,-7.53391 2.204247,-5.87097 5.446586,-8.51631 5.96006,-6.36775 4.84402,-2.09289 3.24234,-2.64534 5.43545,-7.44481 -9.61009,-3.31473 -4.27486,-1.11604 -4.3027,1.5627 5.47443,-11.19506 0.0612,-5.89324 3.7948,-4.24703 4.3194,-3.16995 5.40761,-4.76607 6.4457,-1.54043 2.72886,-4.79391 5.3575,0.0557 z" />
        <path
           style="fill:#e06678;fill-opacity:1;fill-rule:evenodd;stroke:#000000;stroke-width:0.40962586"
           inkscape:connector-curvature="0"
           id="path30"
           d="m 167.39997,171.5165 4.31336,-2.0893 11.30977,-4.15155 8.03727,1.14744 5.31203,5.38535 5.34398,2.18667 5.88591,1.65894 5.83266,6.99027 5.05069,5.779 -0.0586,5.86461 5.48858,3.25837 2.68628,3.69728 2.78448,4.69636 -1.91337,5.78638 9.2809,9.16087 -0.21373,6.04977 12.52677,6.24147 0.40387,4.02346 -10.83133,0.61567 -3.19786,-2.16503 -2.10884,-3.75365 -8.56323,-2.21915 -12.91919,4.13517 -3.73439,-2.17044 -7.52729,1.52368 -7.59119,7.92135 -14.91611,-10.81453 1.68417,-7.44782 -2.10351,-4.28674 -7.01238,3.66165 -8.0426,-0.61427 1.12103,-4.7873 2.71995,-3.70495 2.70931,-2.63864 -3.03266,-18.69246 -3.70777,-4.83604 -3.15523,-6.43031 -1.01976,-5.34234 0.0639,-6.39754 2.21006,-6.37623 4.26543,2.70898 z m -1.27558,20.24863 3.03267,18.69245 -2.70931,2.63865 -2.71995,3.70494 -1.12103,4.7873 -7.48468,-2.74146 -0.10125,10.12964 6.32626,11.26102 -0.57384,3.72657 -3.2938,7.43144 0.47791,5.86993 -4.3404,4.75494 -3.78236,2.62783 -4.31336,2.0893 -5.41321,4.74429 -2.03952,-10.68468 4.90322,-7.41546 -3.18722,-3.23133 1.6469,-3.71576 -6.35862,-8.06226 -2.09815,-4.82007 -8.61115,2.57917 -1.04111,-3.20966 11.87833,-7.345 -2.64536,-3.75906 -2.64536,-3.75905 -2.71463,3.17181 -4.81802,-1.11496 -1.03574,-3.74283 -4.28141,-1.10956 2.86381,-18.09972 3.27779,-5.83226 6.95872,1.66976 12.4256,-8.40593 16.67504,-4.09749 3.15523,6.43031 z m -3.51758,29.82363 8.0426,0.61427 7.01238,-3.66164 2.10351,4.28673 -1.68417,7.44782 14.91611,10.81453 7.59119,-7.92134 7.52728,-1.52369 3.7344,2.17045 12.91919,-4.13518 1.46458,8.35023 3.21499,6.6261 -4.35638,6.35453 -2.75727,7.43676 -11.24587,-2.24619 -0.0906,9.06339 -3.79833,4.22734 -5.34931,-1.65354 -5.4132,4.74429 -3.71842,-3.76987 0.0959,-9.59672 -4.2388,-5.3747 -4.37768,8.48704 -3.37372,15.42856 0.99847,7.47485 -9.65734,-0.0974 -6.93743,-3.80236 -8.56855,-1.68598 -2.64536,-3.75905 -4.26011,-3.24215 -4.23349,-5.90803 4.31336,-2.0893 3.78237,-2.62783 4.34039,-4.75494 -0.47791,-5.86994 3.2938,-7.43143 0.57385,-3.72657 -6.32626,-11.26103 0.10124,-10.12963 z m -42.68301,-24.42435 -2.86382,18.09972 -8.02129,-2.74686 -6.44915,1.00137 0.57917,-4.2597 -6.942752,-3.26919 -2.076845,-6.95258 4.82867,0.0487 1.684177,-7.44782 -2.114161,-3.22048 5.397231,-3.14474 3.70777,4.83604 z m 29.72941,-75.41213 3.7344,2.17045 -2.73593,5.30424 7.97336,7.54531 -2.74658,6.3705 6.89482,8.06758 -2.25802,11.17419 -2.21005,6.37623 -0.0639,6.39754 1.01977,5.34234 -16.67505,4.09749 -12.4256,8.40593 -6.95872,-1.66976 -3.27778,5.83226 -12.27076,-7.0554 -3.70777,-4.83604 0.0746,-7.4642 3.79301,-3.69413 3.3151,-9.56395 -1.01976,-5.34234 9.20634,-8.43829 6.00307,-10.07024 5.46113,-9.54265 -2.65069,-3.22593 5.43983,-7.40972 9.24362,-12.17039 4.28673,0.57642 -0.58449,4.79304 -0.0426,4.26502 z m -45.70605,63.52069 -5.397231,3.14474 2.114161,3.22047 -1.684177,7.44782 -4.828669,-0.0487 -8.552579,-3.2854 -6.958724,-1.66976 -4.743468,-8.5788 -5.349304,-1.65353 5.413206,-4.74429 5.955141,-5.27189 -4.212183,-8.04054 0.06928,-6.93087 4.238808,5.3747 6.427849,1.13122 2.709307,-2.63864 -1.003788,-6.94152 -0.504577,-3.20426 1.110372,-3.72117 3.793013,-3.69412 10.815753,-8.42191 1.64691,-3.71576 5.96046,-5.80522 10.24188,-4.69554 5.88591,1.65895 6.47578,-3.6671 -5.43984,7.40972 2.65069,3.22593 -5.46113,9.54264 -6.00307,10.07025 -9.20634,8.43829 1.01977,5.34234 -3.31511,9.56395 -3.79301,3.69412 z m -9.796203,13.76425 2.076844,6.95258 6.942749,3.26918 -0.57917,4.2597 6.44915,-1.00137 8.02129,2.74687 -4.83399,0.48446 -3.25116,3.16641 3.67045,8.56814 -0.62181,8.52473 -6.52903,8.99866 -9.05191,-7.02304 -7.580536,6.85509 -4.807369,-2.18126 -8.58453,-0.0866 -5.39723,3.14474 -4.30271,1.023 -4.260109,-3.24215 8.111821,-6.31643 1.721493,-11.17992 -5.832662,-6.99027 0.60047,-6.39221 -2.650689,-3.22593 1.110373,-3.72116 13.885907,6.53845 3.819639,-6.35985 3.320427,-10.09728 z m 28.228133,21.07934 4.81802,1.11496 2.71464,-3.17181 2.64536,3.75905 2.64536,3.75906 -11.87833,7.345 1.04111,3.20966 8.61115,-2.57916 2.09815,4.82006 6.35862,8.06226 -1.6469,3.71576 3.18722,3.23133 -4.90323,7.41546 2.03953,10.68468 -5.41853,5.27721 -4.30803,1.55617 -3.79302,3.69413 -0.61112,7.45846 -10.81576,8.42191 -3.28844,6.89851 -3.77171,1.56158 -9.030609,-9.15555 -0.467261,-6.9362 -5.848638,-5.39108 -1.025088,-4.80901 8.850786,-26.57038 3.79834,-4.22734 1.1157,-4.25437 6.52902,-8.99867 0.62181,-8.52472 -3.67045,-8.56814 3.25116,-3.16641 4.834,-0.48447 4.28141,1.10956 z m -53.833027,-36.26704 5.349304,1.65353 4.743468,8.5788 6.958724,1.66976 -3.320427,10.09727 -3.819639,6.35986 -13.885907,-6.53845 -1.110373,3.72116 -15.017704,-0.68465 -4.249458,-4.30844 0.07993,-7.99713 16.818829,-18.49215 2.082169,6.41925 z m 9.96292,-84.145349 4.260109,3.242149 1.497674,11.21228 8.04792,0.0811 7.00706,-3.12851 2.114164,3.22047 3.76634,-1.0284 -0.63246,9.59098 6.3959,4.33015 -5.96047,5.80522 -1.6469,3.71576 -10.815759,8.42191 -3.793013,3.69412 -1.110373,3.72117 0.504577,3.20426 1.003789,6.94152 -2.709307,2.63864 -6.427849,-1.13122 -4.238808,-5.3747 -0.06928,6.93087 4.212182,8.04054 -5.95514,5.27189 -5.413206,4.74429 -5.370605,0.47901 -2.082169,-6.41924 2.794549,-11.16886 -5.407881,4.21095 -4.276084,-1.64272 -9.035937,-8.62222 2.719957,-3.70494 -3.176567,-4.29779 -1.534991,-7.48018 -2.57073,-11.22293 -7.989343,-5.94572 10.789136,-5.75647 3.798338,-4.22734 -1.545642,-6.41393 3.283111,-6.36517 3.793012,-3.69413 4.28141,1.10955 7.580536,-6.855086 6.98535,-0.995964 3.777037,-2.094704 z m -30.0649,109.001439 -0.06395,6.39754 -4.865945,3.68332 0.998463,7.47485 -0.621771,8.52472 -14.481094,-0.67924 1.710843,-10.11366 -4.276084,-1.64272 1.705518,-9.58033 4.903222,-7.41546 5.38658,-2.07848 1.662876,-5.31531 3.771712,-1.56157 -0.07993,7.99712 z m 15.017704,0.68465 2.650689,3.22593 -0.600471,6.39221 5.832663,6.99027 -1.721494,11.17992 -8.111821,6.31643 4.260109,3.24214 4.30271,-1.02299 -0.595145,5.85928 -6.513052,7.39908 2.060869,8.55176 -2.210054,6.37623 -5.992417,9.00399 -9.641364,-1.69684 -2.178104,3.17723 -3.777037,2.0947 -8.707008,12.17572 -2.178103,3.17722 -3.235184,1.56698 -3.171242,-4.83071 -3.059332,-16.02662 4.388322,-9.55329 -6.342647,-9.66144 -1.519015,-9.07976 -5.306704,-5.91869 0.101248,-10.12964 11.830404,-2.54668 5.381255,-1.54531 14.481094,0.67924 0.621771,-8.52473 -0.998463,-7.47485 4.865946,-3.68331 0.06395,-6.39754 z m 42.035803,35.61492 -1.11569,4.25438 -3.79834,4.22734 -8.850789,26.57038 1.025089,4.80901 5.848638,5.39108 0.467261,6.9362 -2.188754,4.24331 -4.335071,4.22202 0.499211,3.73742 -7.553911,4.18925 -4.844645,1.55072 -0.435268,-10.13497 -4.775419,-5.38002 -12.839313,-3.86183 -4.297385,0.48987 -1.641576,3.18263 -6.438499,-0.0649 -9.753602,9.49923 -18.332805,8.87946 -4.844645,1.55072 0.643112,-10.65765 3.787688,-3.161 5.38658,-2.07848 3.235184,-1.56698 2.178104,-3.17723 8.707007,-12.17572 3.777037,-2.0947 2.178104,-3.17722 9.641364,1.69683 5.992417,-9.00398 2.210054,-6.37624 -2.060868,-8.55176 6.513051,-7.39907 0.595145,-5.85929 5.397231,-3.14474 8.584529,0.0866 4.80737,2.18126 7.580536,-6.85509 z m -24.847083,70.13205 -2.858492,17.56681 4.764768,6.44628 6.953399,2.20288 4.699638,7.4511 -0.344684,5.48325 -6.650276,1.97231 -4.404297,11.15288 -4.908547,7.94838 -2.656014,-2.69276 -6.475775,3.6671 -4.28141,-1.10956 -4.860621,3.15019 -1.577633,-3.21507 -5.880589,-2.19207 -3.793012,3.69413 -7.516635,0.45738 -9.16374,4.17327 -2.119487,-2.68735 -3.777037,2.09471 -1.030414,-4.27609 -4.308035,1.55617 -2.119486,-2.68735 -6.830921,-14.46512 -4.2814098,-1.10955 -1.5723079,-3.74824 3.3044519,-8.49769 1.6735268,-6.38156 3.835654,-7.95944 1.126349,-5.32063 -2.634673,-4.8254 4.329745,-3.68872 4.844646,-1.55072 18.332805,-8.87946 9.753602,-9.49922 6.438499,0.0649 1.641576,-3.18263 4.297385,-0.48987 12.839313,3.86183 4.775419,5.38003 z" />
      </g>
    </g>
  </g>
</svg>
